<?xml version="1.0" encoding="utf-8"?>
<!-- Generator: Adobe Illustrator 22.0.1, SVG Export Plug-In . SVG Version: 6.00 Build 0)  -->
<svg version="1.1" id="icons" xmlns="http://www.w3.org/2000/svg" xmlns:xlink="http://www.w3.org/1999/xlink" x="0px" y="0px"
	 viewBox="0 0 45.5 45.5" style="enable-background:new 0 0 45.5 45.5;" xml:space="preserve">
<style type="text/css">
	.st0{display:none;}
	.st1{display:inline;fill:url(#SVGID_1_);}
	.st2{display:inline;fill:url(#SVGID_2_);}
	.st3{display:inline;fill:url(#SVGID_3_);}
	.st4{display:inline;fill:url(#SVGID_4_);}
	.st5{display:inline;fill:url(#SVGID_5_);}
	.st6{display:inline;fill:url(#SVGID_6_);}
	.st7{display:inline;fill:url(#SVGID_7_);}
	.st8{display:inline;fill:url(#SVGID_8_);}
	.st9{display:inline;fill:url(#SVGID_9_);}
	.st10{display:inline;fill:url(#SVGID_10_);}
	.st11{display:inline;fill:url(#SVGID_11_);}
	.st12{display:inline;fill:url(#SVGID_12_);}
	.st13{display:inline;fill:url(#SVGID_13_);}
	.st14{display:inline;fill:url(#SVGID_14_);}
	.st15{display:inline;fill:url(#SVGID_15_);}
	.st16{display:inline;fill:url(#SVGID_16_);}
	.st17{display:inline;fill:url(#SVGID_17_);}
	.st18{display:inline;fill:url(#SVGID_18_);}
	.st19{display:inline;fill:url(#SVGID_19_);}
	.st20{display:inline;fill:url(#SVGID_20_);}
	.st21{display:inline;fill:url(#SVGID_21_);}
	.st22{display:inline;fill:url(#SVGID_22_);}
	.st23{display:inline;fill:url(#SVGID_23_);}
	.st24{display:inline;fill:url(#SVGID_24_);}
	.st25{display:inline;fill:url(#SVGID_25_);}
	.st26{display:inline;fill:url(#SVGID_26_);}
	.st27{display:inline;fill:url(#SVGID_27_);}
	.st28{display:inline;fill:url(#SVGID_28_);}
	.st29{display:inline;fill:url(#SVGID_29_);}
	.st30{display:inline;fill:url(#SVGID_30_);}
	.st31{display:inline;fill:url(#SVGID_31_);}
	.st32{display:inline;fill:url(#SVGID_32_);}
	.st33{display:inline;fill:url(#SVGID_33_);}
	.st34{display:inline;fill:url(#SVGID_34_);}
	.st35{display:inline;fill:url(#SVGID_35_);}
	.st36{display:inline;fill:url(#SVGID_36_);}
	.st37{display:inline;fill:url(#SVGID_37_);}
	.st38{display:inline;fill:url(#SVGID_38_);}
	.st39{display:inline;fill:url(#SVGID_39_);}
	.st40{display:inline;fill:url(#SVGID_40_);}
	.st41{display:inline;fill:url(#SVGID_41_);}
	.st42{display:inline;fill:url(#SVGID_42_);}
	.st43{display:inline;fill:url(#SVGID_43_);}
	.st44{display:inline;fill:url(#SVGID_44_);}
	.st45{display:inline;fill:url(#SVGID_45_);}
	.st46{fill:url(#clouds_2_);}
	.st47{fill:url(#SVGID_46_);}
	.st48{fill:url(#SVGID_47_);}
	.st49{fill:url(#SVGID_48_);}
	.st50{display:inline;fill:url(#SVGID_49_);}
	.st51{display:inline;fill:url(#SVGID_50_);}
	.st52{display:inline;fill:url(#SVGID_51_);}
	.st53{display:inline;fill:url(#SVGID_52_);}
	.st54{display:inline;fill:url(#SVGID_53_);}
	.st55{display:inline;fill:url(#SVGID_54_);}
	.st56{display:inline;fill:url(#SVGID_55_);}
	.st57{fill:url(#SVGID_56_);}
	.st58{fill:url(#SVGID_57_);}
	.st59{display:inline;fill:url(#SVGID_58_);}
	.st60{display:inline;fill:url(#SVGID_59_);}
	.st61{display:inline;fill:url(#SVGID_60_);}
	.st62{display:inline;fill:url(#SVGID_61_);}
	.st63{display:inline;fill:url(#SVGID_62_);}
	.st64{display:inline;}
	.st65{fill:url(#SVGID_63_);}
	.st66{fill:url(#SVGID_64_);}
	.st67{fill:url(#SVGID_65_);}
	.st68{fill:url(#SVGID_66_);}
	.st69{display:inline;fill:url(#SVGID_67_);}
	.st70{display:inline;fill:url(#SVGID_68_);}
	.st71{display:inline;fill:url(#SVGID_69_);}
	.st72{display:inline;fill:url(#SVGID_70_);}
	.st73{display:inline;fill:url(#SVGID_71_);}
	.st74{display:inline;fill:url(#SVGID_72_);}
	.st75{display:inline;fill:url(#SVGID_73_);}
	.st76{display:inline;fill:url(#SVGID_74_);}
	.st77{display:inline;fill:url(#SVGID_75_);}
	.st78{display:inline;fill:url(#SVGID_76_);}
	.st79{display:inline;fill:url(#SVGID_77_);}
	.st80{display:inline;fill:url(#SVGID_78_);}
	.st81{display:inline;fill:url(#SVGID_79_);}
	.st82{display:inline;fill:url(#SVGID_80_);}
	.st83{display:inline;fill:url(#SVGID_81_);}
	.st84{display:inline;fill:url(#clouds_3_);}
	.st85{display:inline;fill:url(#SVGID_82_);}
	.st86{display:inline;fill:url(#SVGID_83_);}
	.st87{display:inline;fill:url(#SVGID_84_);}
	.st88{display:inline;fill:url(#SVGID_85_);}
	.st89{display:inline;fill:url(#SVGID_86_);}
	.st90{display:inline;fill:url(#SVGID_87_);}
	.st91{display:inline;fill:url(#SVGID_88_);}
	.st92{fill:url(#SVGID_89_);}
	.st93{fill:url(#SVGID_90_);}
	.st94{fill:url(#SVGID_91_);}
	.st95{fill:url(#SVGID_92_);}
	.st96{fill:url(#SVGID_93_);}
	.st97{fill:url(#SVGID_94_);}
	.st98{fill:url(#SVGID_95_);}
	.st99{fill:url(#SVGID_96_);}
	.st100{fill:url(#SVGID_97_);}
	.st101{fill:url(#SVGID_98_);}
	.st102{fill:url(#SVGID_99_);}
	.st103{fill:url(#SVGID_100_);}
	.st104{fill:url(#SVGID_101_);}
	.st105{display:inline;fill:url(#SVGID_102_);}
	.st106{display:inline;fill:url(#SVGID_103_);}
	.st107{display:inline;fill:url(#SVGID_104_);}
	.st108{display:inline;fill:url(#SVGID_105_);}
	.st109{display:inline;fill:url(#SVGID_106_);}
	.st110{display:inline;fill:url(#SVGID_107_);}
	.st111{display:inline;fill:url(#SVGID_108_);}
	.st112{display:inline;fill:url(#SVGID_109_);}
	.st113{display:inline;fill:url(#SVGID_110_);}
	.st114{display:inline;fill:url(#SVGID_111_);}
	.st115{display:inline;fill:url(#SVGID_112_);}
	.st116{display:inline;fill:url(#SVGID_113_);}
	.st117{display:inline;fill:url(#SVGID_114_);}
	.st118{display:inline;fill:url(#SVGID_115_);}
	.st119{display:inline;fill:url(#SVGID_116_);}
	.st120{display:inline;fill:url(#SVGID_117_);}
	.st121{display:inline;fill:url(#SVGID_118_);}
	.st122{display:inline;fill:url(#SVGID_119_);}
	.st123{display:inline;fill:url(#SVGID_120_);}
	.st124{display:inline;fill:url(#SVGID_121_);}
	.st125{display:inline;fill:url(#SVGID_122_);}
	.st126{display:inline;fill:url(#SVGID_123_);}
	.st127{display:inline;fill:url(#SVGID_124_);}
	.st128{display:inline;fill:url(#SVGID_125_);}
	.st129{display:inline;fill:url(#SVGID_126_);}
	.st130{display:inline;fill:url(#SVGID_127_);}
	.st131{display:inline;fill:url(#SVGID_128_);}
</style>
<g id="clear" class="st0">
	
		<linearGradient id="SVGID_1_" gradientUnits="userSpaceOnUse" x1="43.6072" y1="46.1082" x2="1.157" y2="3.658" gradientTransform="matrix(1 0 0 -1 0 48)">
		<stop  offset="0" style="stop-color:#31C2DD"/>
		<stop  offset="1" style="stop-color:#0B9BD7"/>
	</linearGradient>
	<path class="st1" d="M22.7,35c-6.8,0-12.2-5.5-12.2-12.2S16,10.5,22.7,10.5S35,16,35,22.8S29.5,35,22.7,35L22.7,35z M22.7,14.5
		c-4.5,0-8.2,3.7-8.2,8.2s3.7,8.2,8.2,8.2s8.2-3.7,8.2-8.2S27.3,14.5,22.7,14.5L22.7,14.5z"/>
	
		<linearGradient id="SVGID_2_" gradientUnits="userSpaceOnUse" x1="34.1066" y1="55.6077" x2="-8.342" y2="13.1591" gradientTransform="matrix(1 0 0 -1 0 48)">
		<stop  offset="0" style="stop-color:#31C2DD"/>
		<stop  offset="1" style="stop-color:#0B9BD7"/>
	</linearGradient>
	<path class="st2" d="M23,7c-0.8,0-1.5-0.7-1.5-1.5v-4C21.5,0.7,22.2,0,23,0c0.8,0,1.5,0.7,1.5,1.5v4C24.5,6.3,23.8,7,23,7L23,7z"/>
	
		<linearGradient id="SVGID_3_" gradientUnits="userSpaceOnUse" x1="30.5054" y1="59.2099" x2="-11.9446" y2="16.76" gradientTransform="matrix(1 0 0 -1 0 48)">
		<stop  offset="0" style="stop-color:#31C2DD"/>
		<stop  offset="1" style="stop-color:#0B9BD7"/>
	</linearGradient>
	<path class="st3" d="M14.3,9.2c-0.5,0-1-0.3-1.3-0.8L11,5c-0.4-0.7-0.2-1.6,0.5-2c0.7-0.4,1.6-0.2,2,0.5l2,3.5
		c0.4,0.7,0.2,1.6-0.5,2C14.9,9.1,14.6,9.2,14.3,9.2L14.3,9.2z"/>
	
		<linearGradient id="SVGID_4_" gradientUnits="userSpaceOnUse" x1="30.4133" y1="59.3021" x2="-12.0369" y2="16.8519" gradientTransform="matrix(1 0 0 -1 0 48)">
		<stop  offset="0" style="stop-color:#31C2DD"/>
		<stop  offset="1" style="stop-color:#0B9BD7"/>
	</linearGradient>
	<path class="st4" d="M7.9,15.4c-0.3,0-0.5-0.1-0.7-0.2l-3.5-2c-0.7-0.4-1-1.3-0.5-2s1.3-1,2-0.5l3.5,2c0.7,0.4,1,1.3,0.5,2
		C9,15.1,8.5,15.4,7.9,15.4L7.9,15.4z"/>
	
		<linearGradient id="SVGID_5_" gradientUnits="userSpaceOnUse" x1="33.8579" y1="55.8579" x2="-8.5921" y2="13.408" gradientTransform="matrix(1 0 0 -1 0 48)">
		<stop  offset="0" style="stop-color:#31C2DD"/>
		<stop  offset="1" style="stop-color:#0B9BD7"/>
	</linearGradient>
	<path class="st5" d="M5.5,24h-4C0.7,24,0,23.3,0,22.5S0.7,21,1.5,21h4C6.3,21,7,21.7,7,22.5S6.3,24,5.5,24L5.5,24z"/>
	
		<linearGradient id="SVGID_6_" gradientUnits="userSpaceOnUse" x1="39.9159" y1="49.8033" x2="-2.537" y2="7.3505" gradientTransform="matrix(1 0 0 -1 0 48)">
		<stop  offset="0" style="stop-color:#31C2DD"/>
		<stop  offset="1" style="stop-color:#0B9BD7"/>
	</linearGradient>
	<path class="st6" d="M4.2,34.7c-0.5,0-1-0.3-1.3-0.8c-0.4-0.7-0.2-1.6,0.5-2l3.5-2c0.7-0.4,1.6-0.2,2,0.5c0.4,0.7,0.2,1.6-0.5,2
		l-3.5,2C4.7,34.6,4.5,34.7,4.2,34.7L4.2,34.7z"/>
	
		<linearGradient id="SVGID_7_" gradientUnits="userSpaceOnUse" x1="56.8004" y1="32.9169" x2="14.3484" y2="-9.5351" gradientTransform="matrix(1 0 0 -1 0 48)">
		<stop  offset="0" style="stop-color:#31C2DD"/>
		<stop  offset="1" style="stop-color:#0B9BD7"/>
	</linearGradient>
	<path class="st7" d="M41,35.1c-0.3,0-0.5-0.1-0.7-0.2l-3.5-2c-0.7-0.4-1-1.3-0.5-2c0.4-0.7,1.3-1,2-0.5l3.5,2c0.7,0.4,1,1.3,0.5,2
		C42,34.8,41.5,35.1,41,35.1L41,35.1z"/>
	
		<linearGradient id="SVGID_8_" gradientUnits="userSpaceOnUse" x1="53.3546" y1="36.3593" x2="10.9064" y2="-6.0889" gradientTransform="matrix(1 0 0 -1 0 48)">
		<stop  offset="0" style="stop-color:#31C2DD"/>
		<stop  offset="1" style="stop-color:#0B9BD7"/>
	</linearGradient>
	<path class="st8" d="M44,24.5h-4c-0.8,0-1.5-0.7-1.5-1.5s0.7-1.5,1.5-1.5h4c0.8,0,1.5,0.7,1.5,1.5S44.8,24.5,44,24.5L44,24.5z"/>
	
		<linearGradient id="SVGID_9_" gradientUnits="userSpaceOnUse" x1="47.2988" y1="42.4155" x2="4.8493" y2="-3.399606e-02" gradientTransform="matrix(1 0 0 -1 0 48)">
		<stop  offset="0" style="stop-color:#31C2DD"/>
		<stop  offset="1" style="stop-color:#0B9BD7"/>
	</linearGradient>
	<path class="st9" d="M37.8,15.8c-0.5,0-1-0.3-1.3-0.8c-0.4-0.7-0.2-1.6,0.5-2l3.5-2c0.7-0.4,1.6-0.2,2,0.5s0.2,1.6-0.5,2l-3.5,2
		C38.3,15.8,38.1,15.8,37.8,15.8L37.8,15.8z"/>
	
		<linearGradient id="SVGID_10_" gradientUnits="userSpaceOnUse" x1="40.2538" y1="49.4615" x2="-2.1964" y2="7.0114" gradientTransform="matrix(1 0 0 -1 0 48)">
		<stop  offset="0" style="stop-color:#31C2DD"/>
		<stop  offset="1" style="stop-color:#0B9BD7"/>
	</linearGradient>
	<path class="st10" d="M31.6,9.4c-0.3,0-0.5-0.1-0.7-0.2c-0.7-0.4-1-1.3-0.5-2l2-3.5c0.4-0.7,1.3-1,2-0.5s1,1.3,0.5,2l-2,3.5
		C32.6,9.2,32.1,9.4,31.6,9.4L31.6,9.4z"/>
	
		<linearGradient id="SVGID_11_" gradientUnits="userSpaceOnUse" x1="48.2916" y1="40.1989" x2="8.1224" y2="2.972251e-02" gradientTransform="matrix(1 0 0 -1 0 48)">
		<stop  offset="0" style="stop-color:#31C2DD"/>
		<stop  offset="1" style="stop-color:#0B9BD7"/>
	</linearGradient>
	<path class="st11" d="M14.5,43.8c-0.3,0-0.5-0.1-0.7-0.2c-0.7-0.4-1-1.3-0.5-2l2-3.5c0.4-0.7,1.3-1,2-0.5c0.7,0.4,1,1.3,0.5,2
		l-2,3.5C15.5,43.6,15,43.8,14.5,43.8L14.5,43.8z"/>
	
		<linearGradient id="SVGID_12_" gradientUnits="userSpaceOnUse" x1="51.0398" y1="35.4472" x2="10.8726" y2="-4.72" gradientTransform="matrix(1 0 0 -1 0 48)">
		<stop  offset="0" style="stop-color:#31C2DD"/>
		<stop  offset="1" style="stop-color:#0B9BD7"/>
	</linearGradient>
	<path class="st12" d="M22,43.8c-0.3,0-0.5-0.1-0.7-0.2c-0.7-0.4-1-1.3-0.5-2l2-3.5c0.4-0.7,1.3-1,2-0.5c0.7,0.4,1,1.3,0.5,2l-2,3.5
		C23,43.6,22.5,43.8,22,43.8L22,43.8z"/>
	
		<linearGradient id="SVGID_13_" gradientUnits="userSpaceOnUse" x1="53.7911" y1="30.6984" x2="13.6221" y2="-9.4706" gradientTransform="matrix(1 0 0 -1 0 48)">
		<stop  offset="0" style="stop-color:#31C2DD"/>
		<stop  offset="1" style="stop-color:#0B9BD7"/>
	</linearGradient>
	<path class="st13" d="M29.5,43.8c-0.3,0-0.5-0.1-0.7-0.2c-0.7-0.4-1-1.3-0.5-2l2-3.5c0.4-0.7,1.3-1,2-0.5c0.7,0.4,1,1.3,0.5,2
		l-2,3.5C30.5,43.6,30,43.8,29.5,43.8L29.5,43.8z"/>
</g>
<g id="clear_1_" class="st0">
	
		<linearGradient id="SVGID_14_" gradientUnits="userSpaceOnUse" x1="43.6072" y1="46.1082" x2="1.157" y2="3.658" gradientTransform="matrix(1 0 0 -1 0 48)">
		<stop  offset="0" style="stop-color:#31C2DD"/>
		<stop  offset="1" style="stop-color:#0B9BD7"/>
	</linearGradient>
	<path class="st14" d="M22.7,35c-6.8,0-12.2-5.5-12.2-12.2S16,10.5,22.7,10.5S35,16,35,22.8S29.5,35,22.7,35L22.7,35z M22.7,14.5
		c-4.5,0-8.2,3.7-8.2,8.2s3.7,8.2,8.2,8.2s8.2-3.7,8.2-8.2S27.3,14.5,22.7,14.5L22.7,14.5z"/>
	
		<linearGradient id="SVGID_15_" gradientUnits="userSpaceOnUse" x1="34.1066" y1="55.6077" x2="-8.342" y2="13.1591" gradientTransform="matrix(1 0 0 -1 0 48)">
		<stop  offset="0" style="stop-color:#31C2DD"/>
		<stop  offset="1" style="stop-color:#0B9BD7"/>
	</linearGradient>
	<path class="st15" d="M23,7c-0.8,0-1.5-0.7-1.5-1.5v-4C21.5,0.7,22.2,0,23,0c0.8,0,1.5,0.7,1.5,1.5v4C24.5,6.3,23.8,7,23,7L23,7z"
		/>
	
		<linearGradient id="SVGID_16_" gradientUnits="userSpaceOnUse" x1="30.5054" y1="59.2099" x2="-11.9446" y2="16.76" gradientTransform="matrix(1 0 0 -1 0 48)">
		<stop  offset="0" style="stop-color:#31C2DD"/>
		<stop  offset="1" style="stop-color:#0B9BD7"/>
	</linearGradient>
	<path class="st16" d="M14.3,9.2c-0.5,0-1-0.3-1.3-0.8L11,5c-0.4-0.7-0.2-1.6,0.5-2c0.7-0.4,1.6-0.2,2,0.5l2,3.5
		c0.4,0.7,0.2,1.6-0.5,2C14.9,9.1,14.6,9.2,14.3,9.2L14.3,9.2z"/>
	
		<linearGradient id="SVGID_17_" gradientUnits="userSpaceOnUse" x1="30.4133" y1="59.3021" x2="-12.0369" y2="16.8519" gradientTransform="matrix(1 0 0 -1 0 48)">
		<stop  offset="0" style="stop-color:#31C2DD"/>
		<stop  offset="1" style="stop-color:#0B9BD7"/>
	</linearGradient>
	<path class="st17" d="M7.9,15.4c-0.3,0-0.5-0.1-0.7-0.2l-3.5-2c-0.7-0.4-1-1.3-0.5-2s1.3-1,2-0.5l3.5,2c0.7,0.4,1,1.3,0.5,2
		C9,15.1,8.5,15.4,7.9,15.4L7.9,15.4z"/>
	
		<linearGradient id="SVGID_18_" gradientUnits="userSpaceOnUse" x1="33.8579" y1="55.8579" x2="-8.5921" y2="13.408" gradientTransform="matrix(1 0 0 -1 0 48)">
		<stop  offset="0" style="stop-color:#31C2DD"/>
		<stop  offset="1" style="stop-color:#0B9BD7"/>
	</linearGradient>
	<path class="st18" d="M5.5,24h-4C0.7,24,0,23.3,0,22.5S0.7,21,1.5,21h4C6.3,21,7,21.7,7,22.5S6.3,24,5.5,24L5.5,24z"/>
	
		<linearGradient id="SVGID_19_" gradientUnits="userSpaceOnUse" x1="39.9159" y1="49.8033" x2="-2.537" y2="7.3505" gradientTransform="matrix(1 0 0 -1 0 48)">
		<stop  offset="0" style="stop-color:#31C2DD"/>
		<stop  offset="1" style="stop-color:#0B9BD7"/>
	</linearGradient>
	<path class="st19" d="M4.2,34.7c-0.5,0-1-0.3-1.3-0.8c-0.4-0.7-0.2-1.6,0.5-2l3.5-2c0.7-0.4,1.6-0.2,2,0.5c0.4,0.7,0.2,1.6-0.5,2
		l-3.5,2C4.7,34.6,4.5,34.7,4.2,34.7L4.2,34.7z"/>
	
		<linearGradient id="SVGID_20_" gradientUnits="userSpaceOnUse" x1="46.9593" y1="42.7551" x2="4.5097" y2="0.3057" gradientTransform="matrix(1 0 0 -1 0 48)">
		<stop  offset="0" style="stop-color:#31C2DD"/>
		<stop  offset="1" style="stop-color:#0B9BD7"/>
	</linearGradient>
	<path class="st20" d="M11.9,42.5c-0.3,0-0.5-0.1-0.7-0.2c-0.7-0.4-1-1.3-0.5-2l2-3.5c0.4-0.7,1.3-1,2-0.5c0.7,0.4,1,1.3,0.5,2
		l-2,3.5C12.9,42.3,12.4,42.5,11.9,42.5L11.9,42.5z"/>
	
		<linearGradient id="SVGID_21_" gradientUnits="userSpaceOnUse" x1="53.1069" y1="36.6084" x2="10.6569" y2="-5.8415" gradientTransform="matrix(1 0 0 -1 0 48)">
		<stop  offset="0" style="stop-color:#31C2DD"/>
		<stop  offset="1" style="stop-color:#0B9BD7"/>
	</linearGradient>
	<path class="st21" d="M22.5,45.5c-0.8,0-1.5-0.7-1.5-1.5v-4c0-0.8,0.7-1.5,1.5-1.5S24,39.2,24,40v4C24,44.8,23.3,45.5,22.5,45.5
		L22.5,45.5z"/>
	
		<linearGradient id="SVGID_22_" gradientUnits="userSpaceOnUse" x1="56.7084" y1="33.0069" x2="14.2587" y2="-9.4427" gradientTransform="matrix(1 0 0 -1 0 48)">
		<stop  offset="0" style="stop-color:#31C2DD"/>
		<stop  offset="1" style="stop-color:#0B9BD7"/>
	</linearGradient>
	<path class="st22" d="M33.2,42.8c-0.5,0-1-0.3-1.3-0.8l-2-3.5c-0.4-0.7-0.2-1.6,0.5-2c0.7-0.4,1.6-0.2,2,0.5l2,3.5
		c0.4,0.7,0.2,1.6-0.5,2C33.7,42.7,33.4,42.8,33.2,42.8L33.2,42.8z"/>
	
		<linearGradient id="SVGID_23_" gradientUnits="userSpaceOnUse" x1="56.8004" y1="32.9169" x2="14.3484" y2="-9.5351" gradientTransform="matrix(1 0 0 -1 0 48)">
		<stop  offset="0" style="stop-color:#31C2DD"/>
		<stop  offset="1" style="stop-color:#0B9BD7"/>
	</linearGradient>
	<path class="st23" d="M41,35.1c-0.3,0-0.5-0.1-0.7-0.2l-3.5-2c-0.7-0.4-1-1.3-0.5-2c0.4-0.7,1.3-1,2-0.5l3.5,2c0.7,0.4,1,1.3,0.5,2
		C42,34.8,41.5,35.1,41,35.1L41,35.1z"/>
	
		<linearGradient id="SVGID_24_" gradientUnits="userSpaceOnUse" x1="53.3546" y1="36.3593" x2="10.9064" y2="-6.0889" gradientTransform="matrix(1 0 0 -1 0 48)">
		<stop  offset="0" style="stop-color:#31C2DD"/>
		<stop  offset="1" style="stop-color:#0B9BD7"/>
	</linearGradient>
	<path class="st24" d="M44,24.5h-4c-0.8,0-1.5-0.7-1.5-1.5s0.7-1.5,1.5-1.5h4c0.8,0,1.5,0.7,1.5,1.5S44.8,24.5,44,24.5L44,24.5z"/>
	
		<linearGradient id="SVGID_25_" gradientUnits="userSpaceOnUse" x1="47.2988" y1="42.4155" x2="4.8493" y2="-3.399606e-02" gradientTransform="matrix(1 0 0 -1 0 48)">
		<stop  offset="0" style="stop-color:#31C2DD"/>
		<stop  offset="1" style="stop-color:#0B9BD7"/>
	</linearGradient>
	<path class="st25" d="M37.8,15.8c-0.5,0-1-0.3-1.3-0.8c-0.4-0.7-0.2-1.6,0.5-2l3.5-2c0.7-0.4,1.6-0.2,2,0.5s0.2,1.6-0.5,2l-3.5,2
		C38.3,15.8,38.1,15.8,37.8,15.8L37.8,15.8z"/>
	
		<linearGradient id="SVGID_26_" gradientUnits="userSpaceOnUse" x1="40.2538" y1="49.4615" x2="-2.1964" y2="7.0114" gradientTransform="matrix(1 0 0 -1 0 48)">
		<stop  offset="0" style="stop-color:#31C2DD"/>
		<stop  offset="1" style="stop-color:#0B9BD7"/>
	</linearGradient>
	<path class="st26" d="M31.6,9.4c-0.3,0-0.5-0.1-0.7-0.2c-0.7-0.4-1-1.3-0.5-2l2-3.5c0.4-0.7,1.3-1,2-0.5s1,1.3,0.5,2l-2,3.5
		C32.6,9.2,32.1,9.4,31.6,9.4L31.6,9.4z"/>
</g>
<g id="thunder-clear" class="st0">
	
		<linearGradient id="SVGID_27_" gradientUnits="userSpaceOnUse" x1="39.9895" y1="46.1837" x2="4.9018" y2="11.0961" gradientTransform="matrix(1 0 0 -1 0 48)">
		<stop  offset="0" style="stop-color:#31C2DD"/>
		<stop  offset="1" style="stop-color:#0B9BD7"/>
	</linearGradient>
	<path class="st27" d="M22.7,29.2c-5.6,0-10.1-4.5-10.1-10.1S17.2,8.9,22.7,8.9s10.1,4.5,10.1,10.1S28.3,29.2,22.7,29.2L22.7,29.2z
		 M22.7,12.2c-3.8,0-6.8,3.1-6.8,6.8s3.1,6.8,6.8,6.8s6.8-3.1,6.8-6.8S26.5,12.2,22.7,12.2L22.7,12.2z"/>
	
		<linearGradient id="SVGID_28_" gradientUnits="userSpaceOnUse" x1="32.1366" y1="54.0357" x2="-2.9497" y2="18.9494" gradientTransform="matrix(1 0 0 -1 0 48)">
		<stop  offset="0" style="stop-color:#31C2DD"/>
		<stop  offset="1" style="stop-color:#0B9BD7"/>
	</linearGradient>
	<path class="st28" d="M23,6c-0.7,0-1.2-0.6-1.2-1.2V1.5c0-0.7,0.6-1.2,1.2-1.2c0.7,0,1.2,0.6,1.2,1.2v3.3C24.2,5.5,23.6,6,23,6
		L23,6z"/>
	
		<linearGradient id="SVGID_29_" gradientUnits="userSpaceOnUse" x1="29.1601" y1="57.0131" x2="-5.9275" y2="21.9257" gradientTransform="matrix(1 0 0 -1 0 48)">
		<stop  offset="0" style="stop-color:#31C2DD"/>
		<stop  offset="1" style="stop-color:#0B9BD7"/>
	</linearGradient>
	<path class="st29" d="M15.8,7.8c-0.4,0-0.8-0.2-1.1-0.6l-1.7-2.9c-0.3-0.6-0.1-1.4,0.5-1.7c0.6-0.3,1.4-0.1,1.7,0.5L16.9,6
		c0.3,0.6,0.1,1.4-0.5,1.7C16.2,7.8,16,7.8,15.8,7.8L15.8,7.8z"/>
	
		<linearGradient id="SVGID_30_" gradientUnits="userSpaceOnUse" x1="29.0839" y1="57.0893" x2="-6.0038" y2="22.0016" gradientTransform="matrix(1 0 0 -1 0 48)">
		<stop  offset="0" style="stop-color:#31C2DD"/>
		<stop  offset="1" style="stop-color:#0B9BD7"/>
	</linearGradient>
	<path class="st30" d="M10.5,13c-0.2,0-0.4-0.1-0.6-0.2L7,11.2c-0.6-0.3-0.8-1.1-0.5-1.7C6.9,8.9,7.7,8.7,8.3,9l2.9,1.7
		c0.6,0.3,0.8,1.1,0.5,1.7C11.3,12.8,10.9,13,10.5,13L10.5,13z"/>
	
		<linearGradient id="SVGID_31_" gradientUnits="userSpaceOnUse" x1="31.9311" y1="54.2425" x2="-3.1564" y2="19.155" gradientTransform="matrix(1 0 0 -1 0 48)">
		<stop  offset="0" style="stop-color:#31C2DD"/>
		<stop  offset="1" style="stop-color:#0B9BD7"/>
	</linearGradient>
	<path class="st31" d="M8.5,20.1H5.2c-0.7,0-1.2-0.6-1.2-1.2c0-0.7,0.6-1.2,1.2-1.2h3.3c0.7,0,1.2,0.6,1.2,1.2
		C9.7,19.5,9.2,20.1,8.5,20.1L8.5,20.1z"/>
	
		<linearGradient id="SVGID_32_" gradientUnits="userSpaceOnUse" x1="36.9384" y1="49.238" x2="1.8485" y2="14.1482" gradientTransform="matrix(1 0 0 -1 0 48)">
		<stop  offset="0" style="stop-color:#31C2DD"/>
		<stop  offset="1" style="stop-color:#0B9BD7"/>
	</linearGradient>
	<path class="st32" d="M7.4,28.9c-0.4,0-0.8-0.2-1.1-0.6c-0.3-0.6-0.1-1.4,0.5-1.7l2.9-1.7c0.6-0.3,1.4-0.1,1.7,0.5
		c0.3,0.6,0.1,1.4-0.5,1.7l-2.9,1.7C7.9,28.8,7.6,28.9,7.4,28.9L7.4,28.9z"/>
	
		<linearGradient id="SVGID_33_" gradientUnits="userSpaceOnUse" x1="42.7602" y1="43.4123" x2="7.673" y2="8.3252" gradientTransform="matrix(1 0 0 -1 0 48)">
		<stop  offset="0" style="stop-color:#31C2DD"/>
		<stop  offset="1" style="stop-color:#0B9BD7"/>
	</linearGradient>
	<path class="st33" d="M13.8,35.4c-0.2,0-0.4-0.1-0.6-0.2c-0.6-0.3-0.8-1.1-0.5-1.7l1.7-2.9c0.3-0.6,1.1-0.8,1.7-0.5
		c0.6,0.3,0.8,1.1,0.5,1.7l-1.7,2.9C14.6,35.2,14.2,35.4,13.8,35.4L13.8,35.4z"/>
	
		<linearGradient id="SVGID_34_" gradientUnits="userSpaceOnUse" x1="50.8185" y1="35.3547" x2="15.7312" y2="0.2675" gradientTransform="matrix(1 0 0 -1 0 48)">
		<stop  offset="0" style="stop-color:#31C2DD"/>
		<stop  offset="1" style="stop-color:#0B9BD7"/>
	</linearGradient>
	<path class="st34" d="M31.4,35.6c-0.4,0-0.8-0.2-1.1-0.6l-1.7-2.9c-0.3-0.6-0.1-1.4,0.5-1.7c0.6-0.3,1.4-0.1,1.7,0.5l1.7,2.9
		c0.3,0.6,0.1,1.4-0.5,1.7C31.8,35.6,31.6,35.6,31.4,35.6L31.4,35.6z"/>
	
		<linearGradient id="SVGID_35_" gradientUnits="userSpaceOnUse" x1="50.8944" y1="35.2804" x2="15.8053" y2="0.1912" gradientTransform="matrix(1 0 0 -1 0 48)">
		<stop  offset="0" style="stop-color:#31C2DD"/>
		<stop  offset="1" style="stop-color:#0B9BD7"/>
	</linearGradient>
	<path class="st35" d="M37.9,29.3c-0.2,0-0.4-0.1-0.6-0.2l-2.9-1.7c-0.6-0.3-0.8-1.1-0.5-1.7c0.3-0.6,1.1-0.8,1.7-0.5l2.9,1.7
		c0.6,0.3,0.8,1.1,0.5,1.7C38.7,29,38.3,29.3,37.9,29.3L37.9,29.3z"/>
	
		<linearGradient id="SVGID_36_" gradientUnits="userSpaceOnUse" x1="48.0463" y1="38.1257" x2="12.9603" y2="3.0397" gradientTransform="matrix(1 0 0 -1 0 48)">
		<stop  offset="0" style="stop-color:#31C2DD"/>
		<stop  offset="1" style="stop-color:#0B9BD7"/>
	</linearGradient>
	<path class="st36" d="M40.3,20.5H37c-0.7,0-1.2-0.6-1.2-1.2c0-0.7,0.6-1.2,1.2-1.2h3.3c0.7,0,1.2,0.6,1.2,1.2
		C41.6,19.9,41,20.5,40.3,20.5L40.3,20.5z"/>
	
		<linearGradient id="SVGID_37_" gradientUnits="userSpaceOnUse" x1="43.0408" y1="43.1315" x2="7.9537" y2="8.0444" gradientTransform="matrix(1 0 0 -1 0 48)">
		<stop  offset="0" style="stop-color:#31C2DD"/>
		<stop  offset="1" style="stop-color:#0B9BD7"/>
	</linearGradient>
	<path class="st37" d="M35.2,13.3c-0.4,0-0.8-0.2-1.1-0.6c-0.3-0.6-0.1-1.4,0.5-1.7l2.9-1.7C38,9,38.8,9.2,39.1,9.8
		c0.3,0.6,0.1,1.4-0.5,1.7l-2.9,1.7C35.6,13.3,35.4,13.3,35.2,13.3L35.2,13.3z"/>
	
		<linearGradient id="SVGID_38_" gradientUnits="userSpaceOnUse" x1="37.2177" y1="48.9555" x2="2.13" y2="13.8678" gradientTransform="matrix(1 0 0 -1 0 48)">
		<stop  offset="0" style="stop-color:#31C2DD"/>
		<stop  offset="1" style="stop-color:#0B9BD7"/>
	</linearGradient>
	<path class="st38" d="M30.1,8.1c-0.2,0-0.4-0.1-0.6-0.2c-0.6-0.3-0.8-1.1-0.5-1.7l1.7-2.9c0.3-0.6,1.1-0.8,1.7-0.5
		c0.6,0.3,0.8,1.1,0.5,1.7l-1.7,2.9C30.9,7.8,30.5,8.1,30.1,8.1L30.1,8.1z"/>
	
		<linearGradient id="SVGID_39_" gradientUnits="userSpaceOnUse" x1="49.1172" y1="36.7113" x2="10.2544" y2="-2.1515" gradientTransform="matrix(1 0 0 -1 0 48)">
		<stop  offset="0" style="stop-color:#31C2DD"/>
		<stop  offset="1" style="stop-color:#0B9BD7"/>
	</linearGradient>
	<path class="st39" d="M25.2,35.2h-2.3l0.6-0.9c0.4-0.7,0.2-1.6-0.5-2c-0.7-0.4-1.6-0.2-2,0.5l-2,3.2c-0.3,0.5-0.3,1,0,1.5
		c0.3,0.5,0.8,0.8,1.3,0.8h2.4L20,43c-0.4,0.7-0.1,1.6,0.6,2c0.2,0.1,0.5,0.2,0.7,0.2c0.5,0,1-0.3,1.3-0.8l4-7c0.3-0.5,0.3-1,0-1.5
		C26.2,35.5,25.7,35.2,25.2,35.2z"/>
</g>
<g id="thunder" class="st0">
	
		<linearGradient id="SVGID_40_" gradientUnits="userSpaceOnUse" x1="40.1467" y1="45.7054" x2="0.8525" y2="6.4112" gradientTransform="matrix(1 0 0 -1 0 48)">
		<stop  offset="0" style="stop-color:#31C2DD"/>
		<stop  offset="1" style="stop-color:#0B9BD7"/>
	</linearGradient>
	<path class="st40" d="M34.1,8.4c-0.5,0-1.1,0-1.6,0.1C30.6,4,26.2,1,21.2,1c-5.9,0-10.9,4.3-12,9.9C4.1,11,0,15.2,0,20.4
		c0,4.2,2.8,7.9,6.7,9.1c0.8,0.3,1.7,0.4,2.6,0.4h25.3c1,0,1.9-0.2,2.8-0.5c4.5-1.4,7.5-5.5,7.5-10.2C44.9,13.2,40.1,8.4,34.1,8.4z
		 M36.2,25.5l-0.1,0c-0.5,0.2-1,0.3-1.5,0.3H9.3c-0.5,0-0.9-0.1-1.4-0.2C5.6,24.9,4,22.8,4,20.4c0-3,2.5-5.5,5.5-5.5
		c0.4,0,0.8,0,1.1,0.1l2.4,0.5l0-2.4C13.1,8.6,16.8,5,21.2,5c3.8,0,7.1,2.6,8,6.3l0.5,2.2l2.1-0.8c0.7-0.3,1.5-0.4,2.3-0.4
		c3.7,0,6.8,3,6.8,6.8C40.9,22.1,39,24.7,36.2,25.5z"/>
	
		<linearGradient id="SVGID_41_" gradientUnits="userSpaceOnUse" x1="49.1033" y1="36.7482" x2="9.8096" y2="-2.5455" gradientTransform="matrix(1 0 0 -1 0 48)">
		<stop  offset="0" style="stop-color:#31C2DD"/>
		<stop  offset="1" style="stop-color:#0B9BD7"/>
	</linearGradient>
	<path class="st41" d="M24.9,35.5h-2.3l0.6-0.9c0.4-0.7,0.2-1.6-0.5-2.1c-0.7-0.4-1.6-0.2-2.1,0.5l-2,3.2c-0.3,0.5-0.3,1,0,1.5
		c0.3,0.5,0.8,0.8,1.3,0.8h2.4l-2.7,4.9c-0.4,0.7-0.1,1.6,0.6,2c0.2,0.1,0.5,0.2,0.7,0.2c0.5,0,1-0.3,1.3-0.8l4-7.1
		c0.3-0.5,0.3-1,0-1.5S25.5,35.5,24.9,35.5z"/>
</g>
<g id="drizzle" class="st0">
	
		<linearGradient id="SVGID_42_" gradientUnits="userSpaceOnUse" x1="42.1249" y1="47.6832" x2="1.956" y2="7.5143" gradientTransform="matrix(1 0 0 -1 0 48)">
		<stop  offset="0" style="stop-color:#31C2DD"/>
		<stop  offset="1" style="stop-color:#0B9BD7"/>
	</linearGradient>
	<path class="st42" d="M34.6,29.9H9.3c-0.9,0-1.8-0.1-2.6-0.4C2.8,28.3,0,24.5,0,20.4c0-5.2,4.1-9.4,9.3-9.5c1.1-5.6,6.1-9.9,12-9.9
		c5,0,9.4,3,11.3,7.5c0.5-0.1,1.1-0.1,1.6-0.1c5.9,0,10.8,4.8,10.8,10.8c0,4.7-3,8.8-7.5,10.2C36.5,29.7,35.5,29.9,34.6,29.9
		L34.6,29.9z M9.5,14.9c-3,0-5.5,2.5-5.5,5.5c0,2.4,1.6,4.6,3.9,5.3c0.5,0.2,0.9,0.2,1.4,0.2h25.3c0.5,0,1-0.1,1.5-0.3l0.1,0
		c2.8-0.9,4.7-3.5,4.7-6.4c0-3.7-3-6.8-6.8-6.8c-0.8,0-1.5,0.1-2.3,0.4l-2.1,0.8l-0.5-2.2c-0.9-3.7-4.2-6.3-8-6.3
		c-4.4,0-8.1,3.6-8.2,8.1l0,2.4L10.6,15C10.3,14.9,9.9,14.9,9.5,14.9L9.5,14.9z"/>
	
		<linearGradient id="SVGID_43_" gradientUnits="userSpaceOnUse" x1="44.5156" y1="45.2935" x2="4.3464" y2="5.1243" gradientTransform="matrix(1 0 0 -1 0 48)">
		<stop  offset="0" style="stop-color:#31C2DD"/>
		<stop  offset="1" style="stop-color:#0B9BD7"/>
	</linearGradient>
	<path class="st43" d="M10.7,38.7c-0.3,0-0.5-0.1-0.7-0.2c-0.7-0.4-1-1.3-0.5-2l2-3.5c0.4-0.7,1.3-1,2-0.5c0.7,0.4,1,1.3,0.5,2
		L12,38C11.7,38.5,11.2,38.7,10.7,38.7L10.7,38.7z"/>
	
		<linearGradient id="SVGID_44_" gradientUnits="userSpaceOnUse" x1="49.2638" y1="40.5418" x2="9.0966" y2="0.3746" gradientTransform="matrix(1 0 0 -1 0 48)">
		<stop  offset="0" style="stop-color:#31C2DD"/>
		<stop  offset="1" style="stop-color:#0B9BD7"/>
	</linearGradient>
	<path class="st44" d="M20.2,38.7c-0.3,0-0.5-0.1-0.7-0.2c-0.7-0.4-1-1.3-0.5-2l2-3.5c0.4-0.7,1.3-1,2-0.5c0.7,0.4,1,1.3,0.5,2
		l-2,3.5C21.2,38.5,20.7,38.7,20.2,38.7L20.2,38.7z"/>
	
		<linearGradient id="SVGID_45_" gradientUnits="userSpaceOnUse" x1="54.0151" y1="35.793" x2="13.8461" y2="-4.376" gradientTransform="matrix(1 0 0 -1 0 48)">
		<stop  offset="0" style="stop-color:#31C2DD"/>
		<stop  offset="1" style="stop-color:#0B9BD7"/>
	</linearGradient>
	<path class="st45" d="M29.7,38.7c-0.3,0-0.5-0.1-0.7-0.2c-0.7-0.4-1-1.3-0.5-2l2-3.5c0.4-0.7,1.3-1,2-0.5c0.7,0.4,1,1.3,0.5,2
		L31,38C30.7,38.5,30.2,38.7,29.7,38.7L29.7,38.7z"/>
</g>
<g id="drizzle-clouds">
	
		<linearGradient id="clouds_2_" gradientUnits="userSpaceOnUse" x1="37.5289" y1="42.107" x2="8.2232" y2="12.8013" gradientTransform="matrix(1 0 0 -1 0 48)">
		<stop  offset="0" style="stop-color:#31C2DD"/>
		<stop  offset="1" style="stop-color:#0B9BD7"/>
	</linearGradient>
	<path id="clouds_1_" class="st46" d="M39.1,9.8c-0.3,0-0.6,0-1,0.1c-1.1-2.6-3.7-4.4-6.6-4.4c-3.4,0-6.4,2.5-7,5.8
		c-1,0-2,0.3-2.8,0.9c-1.5-1-3.3-1.6-5.2-1.6c-4.6,0-8.4,3.3-9.3,7.6c-4,0.1-7.2,3.4-7.2,7.4c0,3.2,2.2,6.1,5.2,7
		c0.7,0.2,1.3,0.3,2,0.3h19.6c0.7,0,1.5-0.1,2.2-0.4c3.5-1.1,5.8-4.3,5.8-7.9c0-0.8-0.1-1.5-0.3-2.2h4.8c0.6,0,1.1-0.1,1.6-0.3
		c2.6-0.8,4.4-3.2,4.4-6C45.4,12.7,42.6,9.8,39.1,9.8z M28.1,29.7L28.1,29.7c-0.5,0.2-0.8,0.2-1.2,0.2H7.3c-0.4,0-0.7-0.1-1.1-0.2
		c-1.8-0.5-3-2.2-3-4.1c0-2.4,1.9-4.3,4.3-4.3c0.3,0,0.6,0,0.9,0.1l1.8,0.4l0-1.9c0.1-3.4,2.9-6.2,6.4-6.2c3,0,5.5,2,6.2,4.9
		l0.4,1.7l1.6-0.6c0.6-0.2,1.2-0.3,1.8-0.3c2.9,0,5.2,2.3,5.2,5.2C31.8,27,30.3,29,28.1,29.7z M40.3,19.9c-0.3,0.1-0.6,0.2-0.9,0.2
		h-5.9c-1.5-2.3-4.1-3.8-7-3.8c-0.4,0-0.8,0-1.3,0.1c-0.4-1-0.9-1.8-1.6-2.6c0.3-0.1,0.7-0.2,1.1-0.2c0.2,0,0.4,0,0.7,0.1l1.4,0.3
		l0-1.4c0.1-2.6,2.2-4.7,4.8-4.7c2.2,0,4.2,1.5,4.7,3.7l0.3,1.3l1.2-0.4c0.4-0.2,0.9-0.2,1.3-0.2c2.2,0,4,1.8,4,4
		C43.1,17.9,42,19.4,40.3,19.9z"/>
	<g id="drizzle_1_">
		
			<linearGradient id="SVGID_46_" gradientUnits="userSpaceOnUse" x1="34.5611" y1="36.007" x2="3.3744" y2="4.8204" gradientTransform="matrix(1 0 0 -1 0 48)">
			<stop  offset="0" style="stop-color:#31C2DD"/>
			<stop  offset="1" style="stop-color:#0B9BD7"/>
		</linearGradient>
		<path class="st47" d="M8.3,40c-0.2,0-0.4,0-0.6-0.2c-0.6-0.3-0.7-1-0.4-1.6l1.6-2.7c0.3-0.6,1-0.7,1.6-0.4c0.6,0.3,0.7,1,0.4,1.6
			l-1.6,2.7C9.1,39.8,8.7,40,8.3,40L8.3,40z"/>
		
			<linearGradient id="SVGID_47_" gradientUnits="userSpaceOnUse" x1="38.2475" y1="32.3178" x2="7.0624" y2="1.1328" gradientTransform="matrix(1 0 0 -1 0 48)">
			<stop  offset="0" style="stop-color:#31C2DD"/>
			<stop  offset="1" style="stop-color:#0B9BD7"/>
		</linearGradient>
		<path class="st48" d="M15.7,40c-0.2,0-0.4,0-0.6-0.2c-0.6-0.3-0.7-1-0.4-1.6l1.6-2.7c0.3-0.6,1-0.7,1.6-0.4c0.6,0.3,0.7,1,0.4,1.6
			l-1.6,2.7C16.5,39.8,16.1,40,15.7,40L15.7,40z"/>
		
			<linearGradient id="SVGID_48_" gradientUnits="userSpaceOnUse" x1="41.9363" y1="28.631" x2="10.7498" y2="-2.5555" gradientTransform="matrix(1 0 0 -1 0 48)">
			<stop  offset="0" style="stop-color:#31C2DD"/>
			<stop  offset="1" style="stop-color:#0B9BD7"/>
		</linearGradient>
		<path class="st49" d="M23.1,40c-0.2,0-0.4,0-0.6-0.2c-0.6-0.3-0.7-1-0.4-1.6l1.6-2.7c0.3-0.6,1-0.7,1.6-0.4c0.6,0.3,0.7,1,0.4,1.6
			l-1.6,2.7C23.9,39.8,23.5,40,23.1,40L23.1,40z"/>
	</g>
</g>
<g id="rain" class="st0">
	
		<linearGradient id="SVGID_49_" gradientUnits="userSpaceOnUse" x1="39.893" y1="45.4508" x2="0.4612" y2="6.019" gradientTransform="matrix(1 0 0 -1 0 48)">
		<stop  offset="0" style="stop-color:#31C2DD"/>
		<stop  offset="1" style="stop-color:#0B9BD7"/>
	</linearGradient>
	<path class="st50" d="M34.1,8.4c-0.5,0-1.1,0-1.6,0.1C30.6,4,26.2,1,21.2,1c-5.9,0-10.9,4.3-12,9.9C4.1,11,0,15.2,0,20.4
		c0,4.2,2.8,7.9,6.7,9.1c0.8,0.3,1.7,0.4,2.6,0.4h25.3c1,0,1.9-0.2,2.8-0.5c4.5-1.4,7.5-5.5,7.5-10.2C44.9,13.2,40.1,8.4,34.1,8.4z
		 M36.2,25.5l-0.1,0c-0.5,0.2-1,0.3-1.5,0.3H9.3c-0.5,0-0.9-0.1-1.4-0.2C5.6,24.9,4,22.8,4,20.4c0-3,2.5-5.5,5.5-5.5
		c0.4,0,0.8,0,1.1,0.1l2.4,0.5l0-2.4C13.1,8.6,16.8,5,21.2,5c3.8,0,7.1,2.6,8,6.3l0.5,2.2l2.1-0.8c0.7-0.3,1.5-0.4,2.3-0.4
		c3.7,0,6.8,3,6.8,6.8C40.9,22.1,39,24.7,36.2,25.5z"/>
	
		<linearGradient id="SVGID_50_" gradientUnits="userSpaceOnUse" x1="42.2821" y1="43.0592" x2="2.852" y2="3.629" gradientTransform="matrix(1 0 0 -1 0 48)">
		<stop  offset="0" style="stop-color:#31C2DD"/>
		<stop  offset="1" style="stop-color:#0B9BD7"/>
	</linearGradient>
	<path class="st51" d="M13.5,32.5c-0.7-0.4-1.6-0.2-2,0.5l-2,3.5c-0.4,0.7-0.2,1.6,0.5,2c0.2,0.1,0.5,0.2,0.7,0.2
		c0.5,0,1-0.3,1.3-0.8l2-3.5C14.4,33.8,14.2,32.9,13.5,32.5z"/>
	
		<linearGradient id="SVGID_51_" gradientUnits="userSpaceOnUse" x1="47.0326" y1="38.3097" x2="7.6016" y2="-1.1214" gradientTransform="matrix(1 0 0 -1 0 48)">
		<stop  offset="0" style="stop-color:#31C2DD"/>
		<stop  offset="1" style="stop-color:#0B9BD7"/>
	</linearGradient>
	<path class="st52" d="M23,32.5c-0.7-0.4-1.6-0.2-2,0.5l-2,3.5c-0.4,0.7-0.2,1.6,0.5,2c0.2,0.1,0.5,0.2,0.7,0.2c0.5,0,1-0.3,1.3-0.8
		l2-3.5C23.9,33.8,23.7,32.9,23,32.5z"/>
	
		<linearGradient id="SVGID_52_" gradientUnits="userSpaceOnUse" x1="51.7811" y1="33.5582" x2="12.3534" y2="-5.8695" gradientTransform="matrix(1 0 0 -1 0 48)">
		<stop  offset="0" style="stop-color:#31C2DD"/>
		<stop  offset="1" style="stop-color:#0B9BD7"/>
	</linearGradient>
	<path class="st53" d="M32.5,32.5c-0.7-0.4-1.6-0.2-2,0.5l-2,3.5c-0.4,0.7-0.2,1.6,0.5,2c0.2,0.1,0.5,0.2,0.7,0.2
		c0.5,0,1-0.3,1.3-0.8l2-3.5C33.4,33.8,33.2,32.9,32.5,32.5z"/>
	
		<linearGradient id="SVGID_53_" gradientUnits="userSpaceOnUse" x1="46.9379" y1="38.402" x2="7.5085" y2="-1.0274" gradientTransform="matrix(1 0 0 -1 0 48)">
		<stop  offset="0" style="stop-color:#31C2DD"/>
		<stop  offset="1" style="stop-color:#0B9BD7"/>
	</linearGradient>
	<path class="st54" d="M16.3,39c-0.7-0.4-1.6-0.2-2,0.5l-2,3.5c-0.4,0.7-0.2,1.6,0.5,2c0.2,0.1,0.5,0.2,0.7,0.2c0.5,0,1-0.3,1.3-0.8
		l2-3.5C17.2,40.3,17,39.4,16.3,39z"/>
	
		<linearGradient id="SVGID_54_" gradientUnits="userSpaceOnUse" x1="51.6871" y1="33.6523" x2="12.2586" y2="-5.7763" gradientTransform="matrix(1 0 0 -1 0 48)">
		<stop  offset="0" style="stop-color:#31C2DD"/>
		<stop  offset="1" style="stop-color:#0B9BD7"/>
	</linearGradient>
	<path class="st55" d="M25.8,39c-0.7-0.4-1.6-0.2-2,0.5l-2,3.5c-0.4,0.7-0.2,1.6,0.5,2c0.2,0.1,0.5,0.2,0.7,0.2c0.5,0,1-0.3,1.3-0.8
		l2-3.5C26.7,40.3,26.5,39.4,25.8,39z"/>
</g>
<g id="snow" class="st0">
	
		<linearGradient id="SVGID_55_" gradientUnits="userSpaceOnUse" x1="41.085" y1="46.6431" x2="1.3075" y2="6.8656" gradientTransform="matrix(1 0 0 -1 0 48)">
		<stop  offset="0" style="stop-color:#31C2DD"/>
		<stop  offset="1" style="stop-color:#0B9BD7"/>
	</linearGradient>
	<path class="st56" d="M34.1,8.4c-0.5,0-1.1,0-1.6,0.1C30.6,4,26.2,1,21.2,1c-5.9,0-10.9,4.3-12,9.9C4.1,11,0,15.2,0,20.4
		c0,4.2,2.8,7.9,6.7,9.1c0.8,0.3,1.7,0.4,2.6,0.4h25.3c1,0,1.9-0.2,2.8-0.5c4.5-1.4,7.5-5.5,7.5-10.2C44.9,13.2,40.1,8.4,34.1,8.4z
		 M36.2,25.5l-0.1,0c-0.5,0.2-1,0.3-1.5,0.3H9.3c-0.5,0-0.9-0.1-1.4-0.2C5.6,24.9,4,22.8,4,20.4c0-3,2.5-5.5,5.5-5.5
		c0.4,0,0.8,0,1.1,0.1l2.4,0.5l0-2.4C13.1,8.6,16.8,5,21.2,5c3.8,0,7.1,2.6,8,6.3l0.5,2.2l2.1-0.8c0.7-0.3,1.5-0.4,2.3-0.4
		c3.7,0,6.8,3,6.8,6.8C40.9,22.1,39,24.7,36.2,25.5z"/>
	
		<linearGradient id="SVGID_56_" gradientUnits="userSpaceOnUse" x1="43.218" y1="44.5144" x2="3.4378" y2="4.7343" gradientTransform="matrix(1 0 0 -1 0 48)">
		<stop  offset="0" style="stop-color:#31C2DD"/>
		<stop  offset="1" style="stop-color:#0B9BD7"/>
	</linearGradient>
	<path class="st57" d="M13.1,36.3c0.6,0,1-0.4,1-1s-0.4-1-1-1h-0.7v-0.7c0-0.6-0.4-1-1-1s-1,0.4-1,1v0.7H9.7c-0.6,0-1,0.4-1,1
		s0.4,1,1,1h0.7V37c0,0.6,0.4,1,1,1s1-0.4,1-1v-0.7H13.1z"/>
	
		<linearGradient id="SVGID_57_" gradientUnits="userSpaceOnUse" x1="53.0923" y1="34.6388" x2="13.312" y2="-5.1414" gradientTransform="matrix(1 0 0 -1 0 48)">
		<stop  offset="0" style="stop-color:#31C2DD"/>
		<stop  offset="1" style="stop-color:#0B9BD7"/>
	</linearGradient>
	<path class="st58" d="M32.8,34.3h-0.7v-0.7c0-0.6-0.4-1-1-1s-1,0.4-1,1v0.7h-0.7c-0.6,0-1,0.4-1,1s0.4,1,1,1h0.7V37
		c0,0.6,0.4,1,1,1s1-0.4,1-1v-0.7h0.7c0.6,0,1-0.4,1-1S33.4,34.3,32.8,34.3z"/>
	
		<linearGradient id="SVGID_58_" gradientUnits="userSpaceOnUse" x1="48.3886" y1="39.3307" x2="8.6163" y2="-0.4417" gradientTransform="matrix(1 0 0 -1 0 48)">
		<stop  offset="0" style="stop-color:#31C2DD"/>
		<stop  offset="1" style="stop-color:#0B9BD7"/>
	</linearGradient>
	<path class="st59" d="M16.8,40.9h-0.7v-0.7c0-0.6-0.4-1-1-1s-1,0.4-1,1v0.7h-0.7c-0.6,0-1,0.4-1,1s0.4,1,1,1h0.7v0.7
		c0,0.6,0.4,1,1,1s1-0.4,1-1v-0.7h0.7c0.6,0,1-0.4,1-1S17.4,40.9,16.8,40.9z"/>
	
		<linearGradient id="SVGID_59_" gradientUnits="userSpaceOnUse" x1="56.3288" y1="34.3958" x2="16.5537" y2="-5.3794" gradientTransform="matrix(1 0 0 -1 0 48)">
		<stop  offset="0" style="stop-color:#31C2DD"/>
		<stop  offset="1" style="stop-color:#0B9BD7"/>
	</linearGradient>
	<path class="st60" d="M29.7,40.9h-0.7v-0.7c0-0.6-0.4-1-1-1s-1,0.4-1,1v0.7h-0.7c-0.6,0-1,0.4-1,1s0.4,1,1,1h0.7v0.7
		c0,0.6,0.4,1,1,1s1-0.4,1-1v-0.7h0.7c0.6,0,1-0.4,1-1S30.3,40.9,29.7,40.9z"/>
	
		<linearGradient id="SVGID_60_" gradientUnits="userSpaceOnUse" x1="49.9885" y1="40.9588" x2="10.2134" y2="1.1836" gradientTransform="matrix(1 0 0 -1 0 48)">
		<stop  offset="0" style="stop-color:#31C2DD"/>
		<stop  offset="1" style="stop-color:#0B9BD7"/>
	</linearGradient>
	<path class="st61" d="M23.4,34.3h-0.7v-0.7c0-0.6-0.4-1-1-1s-1,0.4-1,1v0.7H20c-0.6,0-1,0.4-1,1s0.4,1,1,1h0.7V37c0,0.6,0.4,1,1,1
		s1-0.4,1-1v-0.7h0.7c0.6,0,1-0.4,1-1S23.9,34.3,23.4,34.3z"/>
	
		<linearGradient id="SVGID_61_" gradientUnits="userSpaceOnUse" x1="44.5156" y1="45.4793" x2="4.3464" y2="5.3101" gradientTransform="matrix(1 0 0 -1 0 48)">
		<stop  offset="0" style="stop-color:#31C2DD"/>
		<stop  offset="1" style="stop-color:#0B9BD7"/>
	</linearGradient>
	<path class="st62" d="M10.7,38.5c-0.3,0-0.5-0.1-0.7-0.2c-0.7-0.4-1-1.3-0.5-2l2-3.5c0.4-0.7,1.3-1,2-0.5c0.7,0.4,1,1.3,0.5,2
		l-2,3.5C11.7,38.3,11.2,38.5,10.7,38.5L10.7,38.5z"/>
	
		<linearGradient id="SVGID_62_" gradientUnits="userSpaceOnUse" x1="55.0151" y1="35.9788" x2="14.8461" y2="-4.1902" gradientTransform="matrix(1 0 0 -1 0 48)">
		<stop  offset="0" style="stop-color:#31C2DD"/>
		<stop  offset="1" style="stop-color:#0B9BD7"/>
	</linearGradient>
	<path class="st63" d="M30.7,38.5c-0.3,0-0.5-0.1-0.7-0.2c-0.7-0.4-1-1.3-0.5-2l2-3.5c0.4-0.7,1.3-1,2-0.5c0.7,0.4,1,1.3,0.5,2
		l-2,3.5C31.7,38.3,31.2,38.5,30.7,38.5L30.7,38.5z"/>
</g>
<g id="fog" class="st0">
	<g class="st64">
		<linearGradient id="SVGID_63_" gradientUnits="userSpaceOnUse" x1="34.5583" y1="-1.6267" x2="10.9382" y2="21.9932">
			<stop  offset="0" style="stop-color:#31C2DD"/>
			<stop  offset="1" style="stop-color:#0B9BD7"/>
		</linearGradient>
		<path class="st65" d="M9,13.6c-4.4,0-7.3-1.2-7.4-1.3c-1.2-0.5-1.8-1.9-1.2-3.1C0.8,8,2.2,7.5,3.4,8c0.2,0.1,5,2,11.9-0.1
			c6.6-2,11.1-1,15.1,0c3.7,0.9,6.9,1.6,11.8,0c1.3-0.4,2.6,0.3,3,1.5c0.4,1.2-0.3,2.6-1.5,3c-6.1,2-10.3,1-14.4,0.1
			c-3.7-0.9-7.3-1.7-12.7,0C13.8,13.3,11.2,13.6,9,13.6z"/>
	</g>
	<g class="st64">
		<linearGradient id="SVGID_64_" gradientUnits="userSpaceOnUse" x1="34.558" y1="6.7429" x2="10.9382" y2="30.3626">
			<stop  offset="0" style="stop-color:#31C2DD"/>
			<stop  offset="1" style="stop-color:#0B9BD7"/>
		</linearGradient>
		<path class="st66" d="M9,22c-4.4,0-7.3-1.2-7.4-1.3c-1.2-0.5-1.8-1.9-1.2-3.1c0.5-1.2,1.9-1.7,3.1-1.2c0.2,0.1,5,2,11.9-0.1
			c6.6-2,11.1-1,15.1,0c3.7,0.9,6.9,1.6,11.8,0c1.2-0.4,2.6,0.3,3,1.5c0.4,1.2-0.3,2.6-1.5,3c-6.1,2-10.3,1-14.4,0.1
			c-3.7-0.9-7.3-1.7-12.7,0C13.8,21.7,11.2,22,9,22z"/>
	</g>
	<g class="st64">
		<linearGradient id="SVGID_65_" gradientUnits="userSpaceOnUse" x1="34.5587" y1="15.1113" x2="10.9383" y2="38.7317">
			<stop  offset="0" style="stop-color:#31C2DD"/>
			<stop  offset="1" style="stop-color:#0B9BD7"/>
		</linearGradient>
		<path class="st67" d="M9,30.4c-4.4,0-7.3-1.2-7.4-1.3c-1.2-0.5-1.8-1.9-1.2-3.1c0.5-1.2,1.9-1.7,3.1-1.2c0.2,0.1,5,2,11.9-0.1
			c6.6-2,11.1-1,15.1,0c3.7,0.9,7,1.6,11.8,0c1.3-0.4,2.6,0.3,3,1.5c0.4,1.3-0.3,2.6-1.5,3c-6.1,2-10.3,1-14.4,0.1
			c-3.7-0.9-7.3-1.7-12.7,0C13.8,30.1,11.2,30.4,9,30.4z"/>
	</g>
	<g class="st64">
		<linearGradient id="SVGID_66_" gradientUnits="userSpaceOnUse" x1="34.5585" y1="23.4813" x2="10.9385" y2="47.1013">
			<stop  offset="0" style="stop-color:#31C2DD"/>
			<stop  offset="1" style="stop-color:#0B9BD7"/>
		</linearGradient>
		<path class="st68" d="M9,38.7c-4.4,0-7.3-1.2-7.4-1.3c-1.2-0.5-1.8-1.9-1.2-3.1c0.5-1.2,1.9-1.7,3.1-1.2c0.2,0.1,5,2,11.9-0.1
			c6.6-2,11.1-1,15.1,0c3.7,0.9,6.9,1.6,11.8,0c1.3-0.4,2.6,0.3,3,1.5c0.4,1.3-0.3,2.6-1.5,3c-6.1,2-10.3,1-14.4,0.1
			c-3.7-0.9-7.3-1.7-12.7,0C13.8,38.4,11.2,38.7,9,38.7z"/>
	</g>
</g>
<g id="fog2" class="st0">
	
		<linearGradient id="SVGID_67_" gradientUnits="userSpaceOnUse" x1="44.8934" y1="44.1323" x2="4.8686" y2="4.1076" gradientTransform="matrix(1 0 0 -1 0 48)">
		<stop  offset="0" style="stop-color:#31C2DD"/>
		<stop  offset="1" style="stop-color:#0B9BD7"/>
	</linearGradient>
	<path class="st69" d="M2,28.3h40.9c1.1,0,2-0.9,2-2s-0.9-2-2-2H2c-1.1,0-2,0.9-2,2S0.9,28.3,2,28.3z"/>
	
		<linearGradient id="SVGID_68_" gradientUnits="userSpaceOnUse" x1="48.0894" y1="40.9363" x2="8.0649" y2="0.9119" gradientTransform="matrix(1 0 0 -1 0 48)">
		<stop  offset="0" style="stop-color:#31C2DD"/>
		<stop  offset="1" style="stop-color:#0B9BD7"/>
	</linearGradient>
	<path class="st70" d="M42.9,30.7H2c-1.1,0-2,0.9-2,2s0.9,2,2,2h40.9c1.1,0,2-0.9,2-2S44,30.7,42.9,30.7z"/>
	
		<linearGradient id="SVGID_69_" gradientUnits="userSpaceOnUse" x1="40.8093" y1="48.2169" x2="0.7841" y2="8.1918" gradientTransform="matrix(1 0 0 -1 0 48)">
		<stop  offset="0" style="stop-color:#31C2DD"/>
		<stop  offset="1" style="stop-color:#0B9BD7"/>
	</linearGradient>
	<path class="st71" d="M2,22.4c1.1,0,2-0.9,2-2c0-3,2.5-5.5,5.5-5.5c0.4,0,0.8,0,1.1,0.1l2.4,0.5l0.1-2.4C13.1,8.6,16.8,5,21.2,5
		c3.8,0,7.1,2.6,8,6.3l0.5,2.2l2.1-0.8c0.7-0.3,1.5-0.4,2.3-0.4c3.7,0,6.8,3,6.8,6.8c0,1.1,0.9,2,2,2s2-0.9,2-2
		c0-5.9-4.8-10.8-10.8-10.8c-0.5,0-1.1,0-1.6,0.1C30.6,4,26.2,1,21.2,1c-5.9,0-10.9,4.3-12,9.9C4.1,11,0,15.2,0,20.4
		C0,21.5,0.9,22.4,2,22.4z"/>
</g>
<g id="thunder-fog" class="st0">
	
		<linearGradient id="SVGID_70_" gradientUnits="userSpaceOnUse" x1="44.8934" y1="44.1323" x2="4.8686" y2="4.1076" gradientTransform="matrix(1 0 0 -1 0 48)">
		<stop  offset="0" style="stop-color:#31C2DD"/>
		<stop  offset="1" style="stop-color:#0B9BD7"/>
	</linearGradient>
	<path class="st72" d="M2,28.3h40.9c1.1,0,2-0.9,2-2s-0.9-2-2-2H2c-1.1,0-2,0.9-2,2S0.9,28.3,2,28.3z"/>
	
		<linearGradient id="SVGID_71_" gradientUnits="userSpaceOnUse" x1="17.4039" y1="24.2509" x2="1.4283" y2="8.2754" gradientTransform="matrix(1 0 0 -1 0 48)">
		<stop  offset="0" style="stop-color:#31C2DD"/>
		<stop  offset="1" style="stop-color:#0B9BD7"/>
	</linearGradient>
	<path class="st73" d="M2,34.7h12.9c1.1,0,2-0.9,2-2s-0.9-2-2-2H2c-1.1,0-2,0.9-2,2S0.9,34.7,2,34.7z"/>
	
		<linearGradient id="SVGID_72_" gradientUnits="userSpaceOnUse" x1="45.3419" y1="24.2509" x2="29.3663" y2="8.2754" gradientTransform="matrix(1 0 0 -1 0 48)">
		<stop  offset="0" style="stop-color:#31C2DD"/>
		<stop  offset="1" style="stop-color:#0B9BD7"/>
	</linearGradient>
	<path class="st74" d="M29.9,34.7h12.9c1.1,0,2-0.9,2-2s-0.9-2-2-2H29.9c-1.1,0-2,0.9-2,2S28.8,34.7,29.9,34.7z"/>
	
		<linearGradient id="SVGID_73_" gradientUnits="userSpaceOnUse" x1="49.4098" y1="39.2917" x2="10.1161" y2="-1.963940e-03" gradientTransform="matrix(1 0 0 -1 0 48)">
		<stop  offset="0" style="stop-color:#31C2DD"/>
		<stop  offset="1" style="stop-color:#0B9BD7"/>
	</linearGradient>
	<path class="st75" d="M25.2,32.9h-2.3l0.6-0.9c0.4-0.7,0.2-1.6-0.5-2.1c-0.7-0.4-1.6-0.2-2.1,0.5l-2,3.2c-0.3,0.5-0.3,1,0,1.5
		c0.3,0.5,0.8,0.8,1.3,0.8h2.4l-2.7,4.9c-0.4,0.7-0.1,1.6,0.6,2C20.7,43,21,43,21.2,43c0.5,0,1-0.3,1.3-0.8l4-7.1
		c0.3-0.5,0.3-1,0-1.5S25.8,32.9,25.2,32.9z"/>
	
		<linearGradient id="SVGID_74_" gradientUnits="userSpaceOnUse" x1="40.8093" y1="48.2169" x2="0.7841" y2="8.1918" gradientTransform="matrix(1 0 0 -1 0 48)">
		<stop  offset="0" style="stop-color:#31C2DD"/>
		<stop  offset="1" style="stop-color:#0B9BD7"/>
	</linearGradient>
	<path class="st76" d="M2,22.4c1.1,0,2-0.9,2-2c0-3,2.5-5.5,5.5-5.5c0.4,0,0.8,0,1.1,0.1l2.4,0.5l0.1-2.4C13.1,8.6,16.8,5,21.2,5
		c3.8,0,7.1,2.6,8,6.3l0.5,2.2l2.1-0.8c0.7-0.3,1.5-0.4,2.3-0.4c3.7,0,6.8,3,6.8,6.8c0,1.1,0.9,2,2,2s2-0.9,2-2
		c0-5.9-4.8-10.8-10.8-10.8c-0.5,0-1.1,0-1.6,0.1C30.6,4,26.2,1,21.2,1c-5.9,0-10.9,4.3-12,9.9C4.1,11,0,15.2,0,20.4
		C0,21.5,0.9,22.4,2,22.4z"/>
</g>
<g id="drizzle-fog" class="st0">
	
		<linearGradient id="SVGID_75_" gradientUnits="userSpaceOnUse" x1="44.8934" y1="44.1323" x2="4.8686" y2="4.1076" gradientTransform="matrix(1 0 0 -1 0 48)">
		<stop  offset="0" style="stop-color:#31C2DD"/>
		<stop  offset="1" style="stop-color:#0B9BD7"/>
	</linearGradient>
	<path class="st77" d="M2,28.3h40.9c1.1,0,2-0.9,2-2s-0.9-2-2-2H2c-1.1,0-2,0.9-2,2S0.9,28.3,2,28.3z"/>
	
		<linearGradient id="SVGID_76_" gradientUnits="userSpaceOnUse" x1="15.4503" y1="23.33" x2="1.1164" y2="8.9962" gradientTransform="matrix(1 0 0 -1 0 48)">
		<stop  offset="0" style="stop-color:#31C2DD"/>
		<stop  offset="1" style="stop-color:#0B9BD7"/>
	</linearGradient>
	<path class="st78" d="M1.7,34.7h11.4c1,0,1.8-0.9,1.8-2s-0.8-2-1.8-2H1.7c-1,0-1.8,0.9-1.8,2S0.8,34.7,1.7,34.7z"/>
	
		<linearGradient id="SVGID_77_" gradientUnits="userSpaceOnUse" x1="45.4894" y1="23.0582" x2="31.6401" y2="9.209" gradientTransform="matrix(1 0 0 -1 0 48)">
		<stop  offset="0" style="stop-color:#31C2DD"/>
		<stop  offset="1" style="stop-color:#0B9BD7"/>
	</linearGradient>
	<path class="st79" d="M32.3,34.7h10.9c0.9,0,1.7-0.9,1.7-2s-0.8-2-1.7-2H32.3c-0.9,0-1.7,0.9-1.7,2S31.3,34.7,32.3,34.7z"/>
	
		<linearGradient id="SVGID_78_" gradientUnits="userSpaceOnUse" x1="57.3014" y1="51.7737" x2="1.4688" y2="-4.0589" gradientTransform="matrix(1 0 0 -1 0 48)">
		<stop  offset="0" style="stop-color:#31C2DD"/>
		<stop  offset="1" style="stop-color:#0B9BD7"/>
	</linearGradient>
	<path class="st80" d="M16.9,39.7c-0.4,0-0.7-0.1-1-0.3c-1-0.6-1.3-1.9-0.8-2.8l2.8-4.8c0.6-1,1.9-1.3,2.8-0.8
		c1,0.6,1.3,1.9,0.8,2.8l-2.8,4.8C18.4,39.3,17.7,39.7,16.9,39.7L16.9,39.7z"/>
	
		<linearGradient id="SVGID_79_" gradientUnits="userSpaceOnUse" x1="64.8639" y1="51.7737" x2="9.0313" y2="-4.0589" gradientTransform="matrix(1 0 0 -1 0 48)">
		<stop  offset="0" style="stop-color:#31C2DD"/>
		<stop  offset="1" style="stop-color:#0B9BD7"/>
	</linearGradient>
	<path class="st81" d="M24.5,39.7c-0.4,0-0.7-0.1-1-0.3c-1-0.6-1.3-1.9-0.8-2.8l2.8-4.8c0.6-1,1.9-1.3,2.8-0.8
		c1,0.6,1.3,1.9,0.8,2.8l-2.8,4.8C25.9,39.3,25.2,39.7,24.5,39.7L24.5,39.7z"/>
	
		<linearGradient id="SVGID_80_" gradientUnits="userSpaceOnUse" x1="40.8093" y1="48.2169" x2="0.7841" y2="8.1918" gradientTransform="matrix(1 0 0 -1 0 48)">
		<stop  offset="0" style="stop-color:#31C2DD"/>
		<stop  offset="1" style="stop-color:#0B9BD7"/>
	</linearGradient>
	<path class="st82" d="M2,22.4c1.1,0,2-0.9,2-2c0-3,2.5-5.5,5.5-5.5c0.4,0,0.8,0,1.1,0.1l2.4,0.5l0.1-2.4C13.1,8.6,16.8,5,21.2,5
		c3.8,0,7.1,2.6,8,6.3l0.5,2.2l2.1-0.8c0.7-0.3,1.5-0.4,2.3-0.4c3.7,0,6.8,3,6.8,6.8c0,1.1,0.9,2,2,2s2-0.9,2-2
		c0-5.9-4.8-10.8-10.8-10.8c-0.5,0-1.1,0-1.6,0.1C30.6,4,26.2,1,21.2,1c-5.9,0-10.9,4.3-12,9.9C4.1,11,0,15.2,0,20.4
		C0,21.5,0.9,22.4,2,22.4z"/>
</g>
<g id="thunder-clouds" class="st0">
	
		<linearGradient id="SVGID_81_" gradientUnits="userSpaceOnUse" x1="44.1033" y1="38.6935" x2="4.8096" y2="-0.6002" gradientTransform="matrix(1 0 0 -1 0 48)">
		<stop  offset="0" style="stop-color:#31C2DD"/>
		<stop  offset="1" style="stop-color:#0B9BD7"/>
	</linearGradient>
	<path class="st83" d="M19.9,33.5h-2.3l0.6-0.9c0.4-0.7,0.2-1.6-0.5-2.1c-0.7-0.4-1.6-0.2-2.1,0.5l-2,3.2c-0.3,0.5-0.3,1,0,1.5
		c0.3,0.5,0.8,0.8,1.3,0.8h2.4l-2.7,4.9c-0.4,0.7-0.1,1.6,0.6,2c0.2,0.1,0.5,0.2,0.7,0.2c0.5,0,1-0.3,1.3-0.8l4-7.1
		c0.3-0.5,0.3-1,0-1.5S20.5,33.5,19.9,33.5z"/>
	
		<linearGradient id="clouds_3_" gradientUnits="userSpaceOnUse" x1="37.5289" y1="45.7849" x2="8.2232" y2="16.4792" gradientTransform="matrix(1 0 0 -1 0 48)">
		<stop  offset="0" style="stop-color:#31C2DD"/>
		<stop  offset="1" style="stop-color:#0B9BD7"/>
	</linearGradient>
	<path id="clouds" class="st84" d="M39.1,6.2c-0.3,0-0.6,0-1,0.1c-1.1-2.6-3.7-4.4-6.6-4.4c-3.4,0-6.4,2.5-7,5.8c-1,0-2,0.3-2.8,0.9
		c-1.5-1-3.3-1.6-5.2-1.6c-4.6,0-8.4,3.3-9.3,7.6c-4,0.1-7.2,3.4-7.2,7.4c0,3.2,2.2,6.1,5.2,7c0.7,0.2,1.3,0.3,2,0.3h19.6
		c0.7,0,1.5-0.1,2.2-0.4c3.5-1.1,5.8-4.3,5.8-7.9c0-0.8-0.1-1.5-0.3-2.2h4.8c0.6,0,1.1-0.1,1.6-0.3c2.6-0.8,4.4-3.2,4.4-6
		C45.4,9,42.6,6.2,39.1,6.2z M28.1,26L28.1,26c-0.5,0.2-0.8,0.2-1.2,0.2H7.3c-0.4,0-0.7-0.1-1.1-0.2c-1.8-0.5-3-2.2-3-4.1
		c0-2.4,1.9-4.3,4.3-4.3c0.3,0,0.6,0,0.9,0.1l1.8,0.4l0-1.9c0.1-3.4,2.9-6.2,6.4-6.2c3,0,5.5,2,6.2,4.9l0.4,1.7l1.6-0.6
		c0.6-0.2,1.2-0.3,1.8-0.3c2.9,0,5.2,2.3,5.2,5.2C31.8,23.3,30.3,25.3,28.1,26z M40.3,16.3c-0.3,0.1-0.6,0.2-0.9,0.2h-5.9
		c-1.5-2.3-4.1-3.8-7-3.8c-0.4,0-0.8,0-1.3,0.1c-0.4-1-0.9-1.8-1.6-2.6c0.3-0.1,0.7-0.2,1.1-0.2c0.2,0,0.4,0,0.7,0.1l1.4,0.3l0-1.4
		c0.1-2.6,2.2-4.7,4.8-4.7c2.2,0,4.2,1.5,4.7,3.7l0.3,1.3l1.2-0.4c0.4-0.2,0.9-0.2,1.3-0.2c2.2,0,4,1.8,4,4
		C43.1,14.2,42,15.7,40.3,16.3z"/>
</g>
<g id="extreme" class="st0">
	
		<linearGradient id="SVGID_82_" gradientUnits="userSpaceOnUse" x1="34.2129" y1="54.4694" x2="-6.7775" y2="13.479" gradientTransform="matrix(1 0 0 -1 0 48)">
		<stop  offset="0" style="stop-color:#31C2DD"/>
		<stop  offset="1" style="stop-color:#0B9BD7"/>
	</linearGradient>
	<path class="st85" d="M37.9,8.8H4c-1.1,0-2-0.9-2-2s0.9-2,2-2h33.9c1.1,0,2,0.9,2,2S39,8.8,37.9,8.8L37.9,8.8z"/>
	
		<linearGradient id="SVGID_83_" gradientUnits="userSpaceOnUse" x1="39.2149" y1="49.4663" x2="-1.7751" y2="8.4763" gradientTransform="matrix(1 0 0 -1 0 48)">
		<stop  offset="0" style="stop-color:#31C2DD"/>
		<stop  offset="1" style="stop-color:#0B9BD7"/>
	</linearGradient>
	<path class="st86" d="M42,15.2H7.2c-1.1,0-2-0.9-2-2s0.9-2,2-2H42c1.1,0,2,0.9,2,2S43.1,15.2,42,15.2L42,15.2z"/>
	
		<linearGradient id="SVGID_84_" gradientUnits="userSpaceOnUse" x1="40.9426" y1="47.7386" x2="-4.709790e-02" y2="6.7489" gradientTransform="matrix(1 0 0 -1 0 48)">
		<stop  offset="0" style="stop-color:#31C2DD"/>
		<stop  offset="1" style="stop-color:#0B9BD7"/>
	</linearGradient>
	<path class="st87" d="M37.9,21.6H5.4c-1.1,0-2-0.9-2-2s0.9-2,2-2h32.5c1.1,0,2,0.9,2,2S39,21.6,37.9,21.6L37.9,21.6z"/>
	
		<linearGradient id="SVGID_85_" gradientUnits="userSpaceOnUse" x1="40.3977" y1="48.284" x2="-0.5925" y2="7.2937" gradientTransform="matrix(1 0 0 -1 0 48)">
		<stop  offset="0" style="stop-color:#31C2DD"/>
		<stop  offset="1" style="stop-color:#0B9BD7"/>
	</linearGradient>
	<path class="st88" d="M24.8,27.9H3.5c-1.1,0-2-0.9-2-2s0.9-2,2-2h21.3c1.1,0,2,0.9,2,2S25.9,27.9,24.8,27.9L24.8,27.9z"/>
	
		<linearGradient id="SVGID_86_" gradientUnits="userSpaceOnUse" x1="43.9617" y1="44.7191" x2="2.9721" y2="3.7295" gradientTransform="matrix(1 0 0 -1 0 48)">
		<stop  offset="0" style="stop-color:#31C2DD"/>
		<stop  offset="1" style="stop-color:#0B9BD7"/>
	</linearGradient>
	<path class="st89" d="M20.8,34.3H9c-1.1,0-2-0.9-2-2c0-1.1,0.9-2,2-2h11.8c1.1,0,2,0.9,2,2C22.8,33.4,21.9,34.3,20.8,34.3
		L20.8,34.3z"/>
	
		<linearGradient id="SVGID_87_" gradientUnits="userSpaceOnUse" x1="48.0242" y1="40.6551" x2="7.0352" y2="-0.3339" gradientTransform="matrix(1 0 0 -1 0 48)">
		<stop  offset="0" style="stop-color:#31C2DD"/>
		<stop  offset="1" style="stop-color:#0B9BD7"/>
	</linearGradient>
	<path class="st90" d="M18.8,40.7h-4.3c-1.1,0-2-0.9-2-2s0.9-2,2-2h4.3c1.1,0,2,0.9,2,2S19.9,40.7,18.8,40.7L18.8,40.7z"/>
	
		<linearGradient id="SVGID_88_" gradientUnits="userSpaceOnUse" x1="58.0217" y1="41.6052" x2="18.728" y2="2.3115" gradientTransform="matrix(1 0 0 -1 0 48)">
		<stop  offset="0" style="stop-color:#31C2DD"/>
		<stop  offset="1" style="stop-color:#0B9BD7"/>
	</linearGradient>
	<path class="st91" d="M33.9,30.6h-2.3l0.6-0.9c0.4-0.7,0.2-1.6-0.5-2.1c-0.7-0.4-1.6-0.2-2.1,0.5l-2,3.2c-0.3,0.5-0.3,1,0,1.5
		c0.3,0.5,0.8,0.8,1.3,0.8h2.4l-2.7,4.9c-0.4,0.7-0.1,1.6,0.6,2c0.2,0.1,0.5,0.2,0.7,0.2c0.5,0,1-0.3,1.3-0.8l4-7.1
		c0.3-0.5,0.3-1,0-1.5S34.4,30.6,33.9,30.6z"/>
</g>
<g id="_x3F__1_" class="st0">
	<g class="st64">
		<linearGradient id="SVGID_89_" gradientUnits="userSpaceOnUse" x1="45.7287" y1="22.749" x2="0.722" y2="22.749">
			<stop  offset="0" style="stop-color:#31C2DD"/>
			<stop  offset="1" style="stop-color:#0B9BD7"/>
		</linearGradient>
		<path class="st92" d="M24.7,7c0.1,0.6,0.6,1,1.2,1C25.9,8,26,8,26,8c0.6-0.1,1.1-0.7,1-1.3l-0.4-3.1c-0.1-0.6-0.7-1.1-1.3-1
			c-0.6,0.1-1.1,0.7-1,1.3L24.7,7z"/>
		<linearGradient id="SVGID_90_" gradientUnits="userSpaceOnUse" x1="45.7287" y1="22.749" x2="0.722" y2="22.749">
			<stop  offset="0" style="stop-color:#31C2DD"/>
			<stop  offset="1" style="stop-color:#0B9BD7"/>
		</linearGradient>
		<path class="st93" d="M43.3,25.9l-2.9-1.2c-0.6-0.3-1.3,0-1.5,0.6s0,1.3,0.6,1.5l2.9,1.2c0.1,0.1,0.3,0.1,0.5,0.1
			c0.5,0,0.9-0.3,1.1-0.7C44.2,26.8,43.9,26.1,43.3,25.9z"/>
		<linearGradient id="SVGID_91_" gradientUnits="userSpaceOnUse" x1="45.7287" y1="22.749" x2="0.722" y2="22.749">
			<stop  offset="0" style="stop-color:#31C2DD"/>
			<stop  offset="1" style="stop-color:#0B9BD7"/>
		</linearGradient>
		<path class="st94" d="M45.2,18.2c-0.1-0.6-0.7-1.1-1.3-1l-3.1,0.4c-0.6,0.1-1.1,0.7-1,1.3c0.1,0.6,0.6,1,1.2,1c0.1,0,0.1,0,0.2,0
			l3.1-0.4C44.9,19.5,45.3,18.9,45.2,18.2z"/>
		<linearGradient id="SVGID_92_" gradientUnits="userSpaceOnUse" x1="45.7287" y1="22.749" x2="0.722" y2="22.749">
			<stop  offset="0" style="stop-color:#31C2DD"/>
			<stop  offset="1" style="stop-color:#0B9BD7"/>
		</linearGradient>
		<path class="st95" d="M41.6,11.3c0.5-0.4,0.6-1.1,0.2-1.7c-0.4-0.5-1.1-0.6-1.7-0.2l-2.5,1.9c-0.5,0.4-0.6,1.1-0.2,1.7
			c0.2,0.3,0.6,0.5,0.9,0.5c0.3,0,0.5-0.1,0.7-0.2L41.6,11.3z"/>
		<linearGradient id="SVGID_93_" gradientUnits="userSpaceOnUse" x1="45.7287" y1="22.749" x2="0.722" y2="22.749">
			<stop  offset="0" style="stop-color:#31C2DD"/>
			<stop  offset="1" style="stop-color:#0B9BD7"/>
		</linearGradient>
		<path class="st96" d="M32.4,9c0.1,0.1,0.3,0.1,0.5,0.1c0.5,0,0.9-0.3,1.1-0.7l1.2-2.9c0.3-0.6,0-1.3-0.6-1.5
			c-0.6-0.3-1.3,0-1.5,0.6l-1.2,2.9C31.5,8,31.8,8.7,32.4,9z"/>
		<linearGradient id="SVGID_94_" gradientUnits="userSpaceOnUse" x1="45.7287" y1="22.749" x2="0.722" y2="22.749">
			<stop  offset="0" style="stop-color:#31C2DD"/>
			<stop  offset="1" style="stop-color:#0B9BD7"/>
		</linearGradient>
		<path class="st97" d="M10.9,38c-0.6-0.3-1.3-0.1-1.6,0.4l-1.6,2.7c-0.3,0.6-0.1,1.3,0.4,1.6C8.3,42.9,8.5,43,8.7,43
			c0.4,0,0.8-0.2,1-0.6l1.6-2.7C11.6,39.1,11.4,38.4,10.9,38z"/>
		<linearGradient id="SVGID_95_" gradientUnits="userSpaceOnUse" x1="45.7287" y1="22.749" x2="0.722" y2="22.749">
			<stop  offset="0" style="stop-color:#31C2DD"/>
			<stop  offset="1" style="stop-color:#0B9BD7"/>
		</linearGradient>
		<path class="st98" d="M18.4,38c-0.6-0.3-1.3-0.1-1.6,0.4l-1.6,2.7c-0.3,0.6-0.1,1.3,0.4,1.6c0.2,0.1,0.4,0.2,0.6,0.2
			c0.4,0,0.8-0.2,1-0.6l1.6-2.7C19.1,39.1,18.9,38.4,18.4,38z"/>
		<linearGradient id="SVGID_96_" gradientUnits="userSpaceOnUse" x1="45.7287" y1="22.749" x2="0.722" y2="22.749">
			<stop  offset="0" style="stop-color:#31C2DD"/>
			<stop  offset="1" style="stop-color:#0B9BD7"/>
		</linearGradient>
		<path class="st99" d="M26.9,13.8c-1.2-0.6-2.5-0.8-4-0.8c-1.6,0-3,0.3-4.3,1c-1.2,0.7-2.1,1.5-2.8,2.5c-0.6,1-0.9,2-0.9,3
			c0,0.5,0.2,0.9,0.6,1.3c0.4,0.4,0.9,0.6,1.5,0.6c1,0,1.7-0.6,2-1.8c0.4-1.1,0.8-2,1.4-2.5c0.5-0.6,1.4-0.9,2.5-0.9
			c1,0,1.8,0.3,2.4,0.9c0.6,0.6,0.9,1.3,0.9,2.1c0,0.4-0.1,0.8-0.3,1.2c-0.2,0.4-0.5,0.7-0.7,1c-0.3,0.3-0.8,0.7-1.4,1.3
			c-0.8,0.7-1.4,1.2-1.8,1.7c-0.4,0.5-0.8,1-1.1,1.7c-0.3,0.6-0.4,1.4-0.4,2.3c0,0.7,0.2,1.2,0.6,1.6s0.8,0.5,1.4,0.5
			c1,0,1.7-0.5,1.9-1.6c0.1-0.5,0.2-0.9,0.3-1.1c0.1-0.2,0.1-0.4,0.2-0.6c0.1-0.2,0.3-0.4,0.5-0.7c0.2-0.2,0.5-0.5,0.8-0.8
			c1.3-1.1,2.2-2,2.7-2.4c0.5-0.5,0.9-1.1,1.3-1.7c0.4-0.7,0.5-1.4,0.5-2.3c0-1.1-0.3-2.2-0.9-3.1C29,15.1,28.1,14.4,26.9,13.8z"/>
		<linearGradient id="SVGID_97_" gradientUnits="userSpaceOnUse" x1="45.7287" y1="22.749" x2="0.722" y2="22.749">
			<stop  offset="0" style="stop-color:#31C2DD"/>
			<stop  offset="1" style="stop-color:#0B9BD7"/>
		</linearGradient>
		<path class="st100" d="M24.2,32.6c-0.4-0.4-1-0.7-1.7-0.7c-0.7,0-1.2,0.2-1.7,0.7c-0.5,0.4-0.7,1-0.7,1.7c0,0.7,0.2,1.3,0.7,1.7
			c0.5,0.4,1,0.6,1.7,0.6c0.6,0,1.2-0.2,1.6-0.6c0.5-0.4,0.7-1,0.7-1.7C24.9,33.5,24.7,33,24.2,32.6z"/>
		<linearGradient id="SVGID_98_" gradientUnits="userSpaceOnUse" x1="45.7287" y1="22.749" x2="0.722" y2="22.749">
			<stop  offset="0" style="stop-color:#31C2DD"/>
			<stop  offset="1" style="stop-color:#0B9BD7"/>
		</linearGradient>
		<path class="st101" d="M37,19.1c-0.6-4.8-4.7-8.4-9.6-8.4c-0.4,0-0.8,0-1.3,0.1c-0.5,0.1-1,0.2-1.5,0.3c1.1,0.2,2.2,0.4,3.1,0.9
			c1.5,0.7,2.6,1.7,3.5,3c0.1,0.1,0.1,0.2,0.2,0.3c1.3,1,2.2,2.5,2.5,4.3c0.1,0.9,0,1.7-0.2,2.5c-0.4-0.5-0.8-0.9-1.3-1.3
			c-0.1,0.6-0.3,1.2-0.6,1.7c-0.2,0.5-0.5,0.9-0.8,1.3c1,1,1.6,2.3,1.6,3.8c0,2.3-1.5,4.4-3.7,5.1l-0.1,0c-0.4,0.1-0.8,0.2-1.2,0.2
			h-0.9c0.1,0.4,0.2,0.9,0.2,1.4c0,0.7-0.1,1.3-0.3,1.8h1c0.8,0,1.5-0.1,2.2-0.4c3.5-1.1,5.9-4.4,5.9-8.1c0-0.6-0.1-1.2-0.2-1.8
			C36.7,23.8,37.3,21.5,37,19.1z"/>
		<linearGradient id="SVGID_99_" gradientUnits="userSpaceOnUse" x1="45.7287" y1="22.749" x2="0.722" y2="22.749">
			<stop  offset="0" style="stop-color:#31C2DD"/>
			<stop  offset="1" style="stop-color:#0B9BD7"/>
		</linearGradient>
		<path class="st102" d="M18.2,34.2c0-0.5,0.1-0.9,0.2-1.4H7.6c-0.4,0-0.7-0.1-1.1-0.2c-1.8-0.5-3.1-2.3-3.1-4.2
			c0-2.4,1.9-4.3,4.3-4.3c0.3,0,0.6,0,0.9,0.1l1.9,0.4l0-1.9c0-2.1,1.1-4,2.7-5.1c0.2-0.7,0.5-1.5,1-2.2c0.5-0.8,1.2-1.5,2-2.2
			c-4.3,0.4-7.8,3.6-8.6,7.7c-4,0.1-7.3,3.4-7.3,7.5c0,3.3,2.2,6.2,5.3,7.2C6.2,35.9,6.9,36,7.6,36h10.9
			C18.3,35.5,18.2,34.9,18.2,34.2z"/>
		<linearGradient id="SVGID_100_" gradientUnits="userSpaceOnUse" x1="45.7287" y1="22.749" x2="0.722" y2="22.749">
			<stop  offset="0" style="stop-color:#31C2DD"/>
			<stop  offset="1" style="stop-color:#0B9BD7"/>
		</linearGradient>
		<path class="st103" d="M18.4,10.2c0.2,0.3,0.6,0.5,0.9,0.5c0.3,0,0.5-0.1,0.7-0.2c0.5-0.4,0.6-1.1,0.2-1.7l-1.9-2.5
			c-0.4-0.5-1.1-0.6-1.7-0.2c-0.5,0.4-0.6,1.1-0.2,1.7L18.4,10.2z"/>
		<linearGradient id="SVGID_101_" gradientUnits="userSpaceOnUse" x1="45.7287" y1="22.749" x2="0.722" y2="22.749">
			<stop  offset="0" style="stop-color:#31C2DD"/>
			<stop  offset="1" style="stop-color:#0B9BD7"/>
		</linearGradient>
		<path class="st104" d="M25.9,38c-0.6-0.3-1.3-0.1-1.6,0.4l-1.6,2.7c-0.3,0.6-0.1,1.3,0.4,1.6c0.2,0.1,0.4,0.2,0.6,0.2
			c0.4,0,0.8-0.2,1-0.6l1.6-2.7C26.6,39.1,26.4,38.4,25.9,38z"/>
	</g>
</g>
<g id="additional" class="st0">
	
		<linearGradient id="SVGID_102_" gradientUnits="userSpaceOnUse" x1="29.6055" y1="46.6794" x2="3.2968" y2="20.3708" gradientTransform="matrix(1 0 0 -1 0 48)">
		<stop  offset="0" style="stop-color:#31C2DD"/>
		<stop  offset="1" style="stop-color:#0B9BD7"/>
	</linearGradient>
	<path class="st105" d="M24.7,7c0.1,0.6,0.6,1,1.2,1C25.9,8,26,8,26,8c0.6-0.1,1.1-0.7,1-1.3l-0.4-3.1c-0.1-0.6-0.7-1.1-1.3-1
		c-0.6,0.1-1.1,0.7-1,1.3L24.7,7z"/>
	
		<linearGradient id="SVGID_103_" gradientUnits="userSpaceOnUse" x1="48.0145" y1="28.2705" x2="21.7042" y2="1.9602" gradientTransform="matrix(1 0 0 -1 0 48)">
		<stop  offset="0" style="stop-color:#31C2DD"/>
		<stop  offset="1" style="stop-color:#0B9BD7"/>
	</linearGradient>
	<path class="st106" d="M43.3,25.9l-2.9-1.2c-0.6-0.3-1.3,0-1.5,0.6s0,1.3,0.6,1.5l2.9,1.2c0.1,0.1,0.3,0.1,0.5,0.1
		c0.5,0,0.9-0.3,1.1-0.7C44.2,26.8,43.9,26.1,43.3,25.9z"/>
	
		<linearGradient id="SVGID_104_" gradientUnits="userSpaceOnUse" x1="44.6931" y1="31.5918" x2="18.3841" y2="5.2828" gradientTransform="matrix(1 0 0 -1 0 48)">
		<stop  offset="0" style="stop-color:#31C2DD"/>
		<stop  offset="1" style="stop-color:#0B9BD7"/>
	</linearGradient>
	<path class="st107" d="M45.2,18.2c-0.1-0.6-0.7-1.1-1.3-1l-3.1,0.4c-0.6,0.1-1.1,0.7-1,1.3c0.1,0.6,0.6,1,1.2,1c0.1,0,0.1,0,0.2,0
		l3.1-0.4C44.9,19.5,45.3,18.9,45.2,18.2z"/>
	
		<linearGradient id="SVGID_105_" gradientUnits="userSpaceOnUse" x1="39.5867" y1="36.6982" x2="13.2796" y2="10.3911" gradientTransform="matrix(1 0 0 -1 0 48)">
		<stop  offset="0" style="stop-color:#31C2DD"/>
		<stop  offset="1" style="stop-color:#0B9BD7"/>
	</linearGradient>
	<path class="st108" d="M41.6,11.3c0.5-0.4,0.6-1.1,0.2-1.7c-0.4-0.5-1.1-0.6-1.7-0.2l-2.5,1.9c-0.5,0.4-0.6,1.1-0.2,1.7
		c0.2,0.3,0.6,0.5,0.9,0.5c0.3,0,0.5-0.1,0.7-0.2L41.6,11.3z"/>
	
		<linearGradient id="SVGID_106_" gradientUnits="userSpaceOnUse" x1="34.065" y1="42.22" x2="7.7535" y2="15.9086" gradientTransform="matrix(1 0 0 -1 0 48)">
		<stop  offset="0" style="stop-color:#31C2DD"/>
		<stop  offset="1" style="stop-color:#0B9BD7"/>
	</linearGradient>
	<path class="st109" d="M32.4,9c0.1,0.1,0.3,0.1,0.5,0.1c0.5,0,0.9-0.3,1.1-0.7l1.2-2.9c0.3-0.6,0-1.3-0.6-1.5
		c-0.6-0.3-1.3,0-1.5,0.6l-1.2,2.9C31.5,8,31.8,8.7,32.4,9z"/>
	
		<linearGradient id="SVGID_107_" gradientUnits="userSpaceOnUse" x1="37.2155" y1="39.0697" x2="10.9067" y2="12.7608" gradientTransform="matrix(1 0 0 -1 0 48)">
		<stop  offset="0" style="stop-color:#31C2DD"/>
		<stop  offset="1" style="stop-color:#0B9BD7"/>
	</linearGradient>
	<path class="st110" d="M37,19.1c-0.6-4.8-4.7-8.4-9.6-8.4c-0.4,0-0.8,0-1.3,0.1c-2.3,0.3-4.3,1.4-5.8,3c-1-0.4-2.2-0.6-3.3-0.6
		c-4.6,0-8.6,3.4-9.5,7.8c-4,0.1-7.3,3.4-7.3,7.5c0,3.3,2.2,6.2,5.3,7.2C6.2,35.9,6.9,36,7.6,36h19.9c0.8,0,1.5-0.1,2.2-0.4
		c3.5-1.1,5.9-4.4,5.9-8.1c0-0.6-0.1-1.2-0.2-1.8C36.7,23.8,37.3,21.5,37,19.1z M28.8,32.6L28.8,32.6c-0.5,0.2-0.9,0.2-1.3,0.2H7.6
		c-0.4,0-0.7-0.1-1.1-0.2c-1.8-0.5-3.1-2.3-3.1-4.2c0-2.4,1.9-4.3,4.3-4.3c0.3,0,0.6,0,0.9,0.1l1.9,0.4l0-1.9c0.1-3.5,3-6.4,6.5-6.4
		c3,0,5.6,2.1,6.3,5l0.4,1.7l1.7-0.6c0.6-0.2,1.2-0.3,1.8-0.3c2.9,0,5.3,2.4,5.3,5.3C32.5,29.8,31,31.9,28.8,32.6z M27.2,19
		c-0.4,0-0.9,0-1.3,0.1c-0.6-1.4-1.5-2.7-2.7-3.7c0.9-0.8,2.1-1.4,3.4-1.5c0.3,0,0.6-0.1,0.9-0.1c3.3,0,6,2.4,6.4,5.7
		c0.1,0.9,0,1.7-0.2,2.5C32.1,20.2,29.8,19,27.2,19z"/>
	
		<linearGradient id="SVGID_108_" gradientUnits="userSpaceOnUse" x1="39.1035" y1="37.1845" x2="12.7935" y2="10.8745" gradientTransform="matrix(1 0 0 -1 0 48)">
		<stop  offset="0" style="stop-color:#31C2DD"/>
		<stop  offset="1" style="stop-color:#0B9BD7"/>
	</linearGradient>
	<path class="st111" d="M10.9,38c-0.6-0.3-1.3-0.1-1.6,0.4l-1.6,2.7c-0.3,0.6-0.1,1.3,0.4,1.6C8.3,42.9,8.5,43,8.7,43
		c0.4,0,0.8-0.2,1-0.6l1.6-2.7C11.6,39.1,11.4,38.4,10.9,38z"/>
	
		<linearGradient id="SVGID_109_" gradientUnits="userSpaceOnUse" x1="42.8504" y1="33.435" x2="16.5414" y2="7.126" gradientTransform="matrix(1 0 0 -1 0 48)">
		<stop  offset="0" style="stop-color:#31C2DD"/>
		<stop  offset="1" style="stop-color:#0B9BD7"/>
	</linearGradient>
	<path class="st112" d="M18.4,38c-0.6-0.3-1.3-0.1-1.6,0.4l-1.6,2.7c-0.3,0.6-0.1,1.3,0.4,1.6c0.2,0.1,0.4,0.2,0.6,0.2
		c0.4,0,0.8-0.2,1-0.6l1.6-2.7C19.1,39.1,18.9,38.4,18.4,38z"/>
	
		<linearGradient id="SVGID_110_" gradientUnits="userSpaceOnUse" x1="27.4031" y1="48.8814" x2="1.0946" y2="22.5728" gradientTransform="matrix(1 0 0 -1 0 48)">
		<stop  offset="0" style="stop-color:#31C2DD"/>
		<stop  offset="1" style="stop-color:#0B9BD7"/>
	</linearGradient>
	<path class="st113" d="M18.4,10.2c0.2,0.3,0.6,0.5,0.9,0.5c0.3,0,0.5-0.1,0.7-0.2c0.5-0.4,0.6-1.1,0.2-1.7l-1.9-2.5
		c-0.4-0.5-1.1-0.6-1.7-0.2c-0.5,0.4-0.6,1.1-0.2,1.7L18.4,10.2z"/>
	
		<linearGradient id="SVGID_111_" gradientUnits="userSpaceOnUse" x1="46.5988" y1="29.6874" x2="20.2894" y2="3.378" gradientTransform="matrix(1 0 0 -1 0 48)">
		<stop  offset="0" style="stop-color:#31C2DD"/>
		<stop  offset="1" style="stop-color:#0B9BD7"/>
	</linearGradient>
	<path class="st114" d="M25.9,38c-0.6-0.3-1.3-0.1-1.6,0.4l-1.6,2.7c-0.3,0.6-0.1,1.3,0.4,1.6c0.2,0.1,0.4,0.2,0.6,0.2
		c0.4,0,0.8-0.2,1-0.6l1.6-2.7C26.6,39.1,26.4,38.4,25.9,38z"/>
	
		<linearGradient id="SVGID_112_" gradientUnits="userSpaceOnUse" x1="39.54" y1="26.9344" x2="8.1167" y2="-4.4889" gradientTransform="matrix(1 0 0 -1 0 48)">
		<stop  offset="0" style="stop-color:#31C2DD"/>
		<stop  offset="1" style="stop-color:#0B9BD7"/>
	</linearGradient>
	<path class="st115" d="M20.2,40.4h-1.8l0.4-0.7c0.3-0.6,0.2-1.3-0.4-1.7c-0.6-0.3-1.3-0.2-1.7,0.4L15.2,41c-0.2,0.4-0.2,0.8,0,1.2
		c0.2,0.4,0.6,0.6,1,0.6h1.9L16,46.7c-0.3,0.6-0.1,1.3,0.5,1.6c0.2,0.1,0.4,0.2,0.6,0.2c0.4,0,0.8-0.2,1-0.6l3.2-5.7
		c0.2-0.4,0.2-0.8,0-1.2C21,40.7,20.6,40.4,20.2,40.4z"/>
</g>
<g id="thunder-additional" class="st0">
	
		<linearGradient id="SVGID_113_" gradientUnits="userSpaceOnUse" x1="29.4853" y1="49.0296" x2="3.6379" y2="23.1821" gradientTransform="matrix(1 0 0 -1 0 48)">
		<stop  offset="0" style="stop-color:#31C2DD"/>
		<stop  offset="1" style="stop-color:#0B9BD7"/>
	</linearGradient>
	<path class="st116" d="M24.6,4.5c0.1,0.6,0.6,1,1.2,1c0,0,0.1,0,0.2,0c0.6-0.1,1.1-0.7,1-1.3l-0.4-3.1c-0.1-0.6-0.7-1.1-1.3-1
		c-0.6,0.1-1.1,0.7-1,1.3L24.6,4.5z"/>
	
		<linearGradient id="SVGID_114_" gradientUnits="userSpaceOnUse" x1="47.5716" y1="30.9433" x2="21.7226" y2="5.0943" gradientTransform="matrix(1 0 0 -1 0 48)">
		<stop  offset="0" style="stop-color:#31C2DD"/>
		<stop  offset="1" style="stop-color:#0B9BD7"/>
	</linearGradient>
	<path class="st117" d="M42.9,23.1l-2.9-1.2c-0.6-0.2-1.3,0-1.5,0.6c-0.2,0.6,0,1.3,0.6,1.5l2.9,1.2c0.1,0.1,0.3,0.1,0.4,0.1
		c0.5,0,0.9-0.3,1.1-0.7C43.8,24,43.5,23.4,42.9,23.1z"/>
	
		<linearGradient id="SVGID_115_" gradientUnits="userSpaceOnUse" x1="44.3084" y1="34.2064" x2="18.4606" y2="8.3587" gradientTransform="matrix(1 0 0 -1 0 48)">
		<stop  offset="0" style="stop-color:#31C2DD"/>
		<stop  offset="1" style="stop-color:#0B9BD7"/>
	</linearGradient>
	<path class="st118" d="M44.8,15.6c-0.1-0.6-0.7-1.1-1.3-1L40.5,15c-0.6,0.1-1.1,0.7-1,1.3c0.1,0.6,0.6,1,1.2,1c0.1,0,0.1,0,0.2,0
		l3.1-0.4C44.5,16.8,44.9,16.2,44.8,15.6z"/>
	
		<linearGradient id="SVGID_116_" gradientUnits="userSpaceOnUse" x1="39.2915" y1="39.2233" x2="13.4457" y2="13.3774" gradientTransform="matrix(1 0 0 -1 0 48)">
		<stop  offset="0" style="stop-color:#31C2DD"/>
		<stop  offset="1" style="stop-color:#0B9BD7"/>
	</linearGradient>
	<path class="st119" d="M41.2,8.7c0.5-0.4,0.6-1.1,0.2-1.6c-0.4-0.5-1.1-0.6-1.6-0.2l-2.5,1.9c-0.5,0.4-0.6,1.1-0.2,1.6
		c0.2,0.3,0.6,0.5,0.9,0.5c0.2,0,0.5-0.1,0.7-0.2L41.2,8.7z"/>
	
		<linearGradient id="SVGID_117_" gradientUnits="userSpaceOnUse" x1="33.8666" y1="44.6483" x2="8.0163" y2="18.7981" gradientTransform="matrix(1 0 0 -1 0 48)">
		<stop  offset="0" style="stop-color:#31C2DD"/>
		<stop  offset="1" style="stop-color:#0B9BD7"/>
	</linearGradient>
	<path class="st120" d="M32.2,6.5c0.1,0.1,0.3,0.1,0.4,0.1c0.5,0,0.9-0.3,1.1-0.7L34.9,3c0.2-0.6,0-1.3-0.6-1.5
		c-0.6-0.2-1.3,0-1.5,0.6L31.6,5C31.3,5.6,31.6,6.2,32.2,6.5z"/>
	
		<linearGradient id="SVGID_118_" gradientUnits="userSpaceOnUse" x1="36.9619" y1="41.5533" x2="11.1143" y2="15.7056" gradientTransform="matrix(1 0 0 -1 0 48)">
		<stop  offset="0" style="stop-color:#31C2DD"/>
		<stop  offset="1" style="stop-color:#0B9BD7"/>
	</linearGradient>
	<path class="st121" d="M36.8,16.5c-0.6-4.7-4.7-8.3-9.4-8.3c-0.4,0-0.8,0-1.2,0.1c-2.3,0.3-4.3,1.4-5.7,3c-1-0.4-2.1-0.6-3.3-0.6
		c-4.6,0-8.4,3.3-9.3,7.6c-4,0.1-7.2,3.4-7.2,7.4c0,3.2,2.2,6.1,5.2,7c0.7,0.2,1.3,0.3,2,0.3h19.6c0.7,0,1.5-0.1,2.2-0.4
		c3.5-1.1,5.8-4.3,5.8-7.9c0-0.6-0.1-1.2-0.2-1.8C36.5,21.1,37.1,18.8,36.8,16.5z M28.7,29.7L28.7,29.7c-0.5,0.2-0.8,0.2-1.2,0.2
		H7.9c-0.4,0-0.7-0.1-1.1-0.2c-1.8-0.5-3-2.2-3-4.1c0-2.4,1.9-4.3,4.3-4.3c0.3,0,0.6,0,0.9,0.1l1.8,0.4l0-1.9
		c0.1-3.4,2.9-6.2,6.4-6.2c3,0,5.5,2,6.2,4.9l0.4,1.7l1.6-0.6c0.6-0.2,1.2-0.3,1.8-0.3c2.9,0,5.2,2.3,5.2,5.2
		C32.3,27,30.9,29,28.7,29.7z M27.1,16.3c-0.4,0-0.8,0-1.3,0.1c-0.6-1.4-1.5-2.6-2.7-3.6c0.9-0.8,2.1-1.3,3.3-1.5
		c0.3,0,0.6-0.1,0.8-0.1c3.2,0,5.9,2.4,6.3,5.6c0.1,0.9,0,1.7-0.2,2.5C32,17.5,29.7,16.3,27.1,16.3z"/>
	
		<linearGradient id="SVGID_119_" gradientUnits="userSpaceOnUse" x1="38.8168" y1="39.7012" x2="12.968" y2="13.8523" gradientTransform="matrix(1 0 0 -1 0 48)">
		<stop  offset="0" style="stop-color:#31C2DD"/>
		<stop  offset="1" style="stop-color:#0B9BD7"/>
	</linearGradient>
	<path class="st122" d="M11.1,35c-0.6-0.3-1.3-0.1-1.6,0.4l-1.5,2.7c-0.3,0.6-0.1,1.3,0.4,1.6c0.2,0.1,0.4,0.2,0.6,0.2
		c0.4,0,0.8-0.2,1-0.6l1.5-2.7C11.8,36.1,11.6,35.4,11.1,35z"/>
	
		<linearGradient id="SVGID_120_" gradientUnits="userSpaceOnUse" x1="27.3216" y1="51.193" x2="1.4742" y2="25.3456" gradientTransform="matrix(1 0 0 -1 0 48)">
		<stop  offset="0" style="stop-color:#31C2DD"/>
		<stop  offset="1" style="stop-color:#0B9BD7"/>
	</linearGradient>
	<path class="st123" d="M18.4,7.6c0.2,0.3,0.6,0.5,0.9,0.5c0.2,0,0.5-0.1,0.7-0.2c0.5-0.4,0.6-1.1,0.2-1.6l-1.9-2.5
		c-0.4-0.5-1.1-0.6-1.6-0.2c-0.5,0.4-0.6,1.1-0.2,1.6L18.4,7.6z"/>
	
		<linearGradient id="SVGID_121_" gradientUnits="userSpaceOnUse" x1="46.1806" y1="32.3354" x2="20.3325" y2="6.4873" gradientTransform="matrix(1 0 0 -1 0 48)">
		<stop  offset="0" style="stop-color:#31C2DD"/>
		<stop  offset="1" style="stop-color:#0B9BD7"/>
	</linearGradient>
	<path class="st124" d="M25.8,35c-0.6-0.3-1.3-0.1-1.6,0.4l-1.6,2.7c-0.3,0.6-0.1,1.3,0.4,1.6c0.2,0.1,0.4,0.2,0.6,0.2
		c0.4,0,0.8-0.2,1-0.6l1.5-2.7C26.6,36.1,26.4,35.4,25.8,35z"/>
	
		<linearGradient id="SVGID_122_" gradientUnits="userSpaceOnUse" x1="38.2632" y1="29.6307" x2="7.3907" y2="-1.2417" gradientTransform="matrix(1 0 0 -1 0 48)">
		<stop  offset="0" style="stop-color:#31C2DD"/>
		<stop  offset="1" style="stop-color:#0B9BD7"/>
	</linearGradient>
	<path class="st125" d="M19.3,37.4h-1.8l0.4-0.7c0.3-0.6,0.2-1.3-0.4-1.6c-0.6-0.3-1.3-0.2-1.6,0.4l-1.6,2.5c-0.2,0.4-0.2,0.8,0,1.2
		c0.2,0.4,0.6,0.6,1,0.6h1.9l-2.2,3.8c-0.3,0.6-0.1,1.3,0.5,1.6c0.2,0.1,0.4,0.2,0.6,0.2c0.4,0,0.8-0.2,1-0.6l3.1-5.6
		c0.2-0.4,0.2-0.8,0-1.2C20.1,37.6,19.7,37.4,19.3,37.4z"/>
</g>
<g id="dizzle_1_" class="st0">
	
		<linearGradient id="SVGID_123_" gradientUnits="userSpaceOnUse" x1="42.4314" y1="48.2267" x2="2.2625" y2="8.0578" gradientTransform="matrix(1 0 0 -1 0 48)">
		<stop  offset="0" style="stop-color:#31C2DD"/>
		<stop  offset="1" style="stop-color:#0B9BD7"/>
	</linearGradient>
	<path class="st126" d="M34.9,29.3H9.6c-0.9,0-1.8-0.1-2.6-0.4c-3.9-1.2-6.7-4.9-6.7-9.1c0-5.2,4.1-9.4,9.3-9.5
		c1.1-5.6,6.1-9.9,12-9.9c5,0,9.4,3,11.3,7.5c0.5-0.1,1.1-0.1,1.6-0.1c5.9,0,10.8,4.8,10.8,10.8c0,4.7-3,8.8-7.5,10.2
		C36.8,29.1,35.8,29.3,34.9,29.3L34.9,29.3z M9.8,14.3c-3,0-5.5,2.5-5.5,5.5c0,2.4,1.6,4.6,3.9,5.3c0.5,0.2,0.9,0.2,1.4,0.2h25.3
		c0.5,0,1-0.1,1.5-0.3l0.1,0c2.8-0.9,4.7-3.5,4.7-6.4c0-3.7-3-6.8-6.8-6.8c-0.8,0-1.5,0.1-2.3,0.4L30.1,13l-0.5-2.2
		c-0.9-3.7-4.2-6.3-8-6.3c-4.4,0-8.1,3.6-8.2,8.1l0,2.4l-2.4-0.5C10.6,14.4,10.2,14.3,9.8,14.3L9.8,14.3z"/>
	
		<linearGradient id="SVGID_124_" gradientUnits="userSpaceOnUse" x1="44.8221" y1="45.837" x2="4.6529" y2="5.6678" gradientTransform="matrix(1 0 0 -1 0 48)">
		<stop  offset="0" style="stop-color:#31C2DD"/>
		<stop  offset="1" style="stop-color:#0B9BD7"/>
	</linearGradient>
	<path class="st127" d="M11,38.2c-0.3,0-0.5-0.1-0.7-0.2c-0.7-0.4-1-1.3-0.5-2l2-3.5c0.4-0.7,1.3-1,2-0.5c0.7,0.4,1,1.3,0.5,2
		l-2,3.5C12.1,37.9,11.5,38.2,11,38.2L11,38.2z"/>
	
		<linearGradient id="SVGID_125_" gradientUnits="userSpaceOnUse" x1="54.3216" y1="36.3365" x2="14.1526" y2="-3.8325" gradientTransform="matrix(1 0 0 -1 0 48)">
		<stop  offset="0" style="stop-color:#31C2DD"/>
		<stop  offset="1" style="stop-color:#0B9BD7"/>
	</linearGradient>
	<path class="st128" d="M30,38.2c-0.3,0-0.5-0.1-0.7-0.2c-0.7-0.4-1-1.3-0.5-2l2-3.5c0.4-0.7,1.3-1,2-0.5c0.7,0.4,1,1.3,0.5,2
		l-2,3.5C31.1,37.9,30.5,38.2,30,38.2L30,38.2z"/>
	
		<linearGradient id="SVGID_126_" gradientUnits="userSpaceOnUse" x1="46.8221" y1="39.3725" x2="6.6529" y2="-0.7967" gradientTransform="matrix(1 0 0 -1 0 48)">
		<stop  offset="0" style="stop-color:#31C2DD"/>
		<stop  offset="1" style="stop-color:#0B9BD7"/>
	</linearGradient>
	<path class="st129" d="M13,44.7c-0.3,0-0.5-0.1-0.7-0.2c-0.7-0.4-1-1.3-0.5-2l2-3.5c0.4-0.7,1.3-1,2-0.5c0.7,0.4,1,1.3,0.5,2
		l-2,3.5C14.1,44.4,13.5,44.7,13,44.7L13,44.7z"/>
	
		<linearGradient id="SVGID_127_" gradientUnits="userSpaceOnUse" x1="56.3216" y1="29.872" x2="16.1526" y2="-10.297" gradientTransform="matrix(1 0 0 -1 0 48)">
		<stop  offset="0" style="stop-color:#31C2DD"/>
		<stop  offset="1" style="stop-color:#0B9BD7"/>
	</linearGradient>
	<path class="st130" d="M32,44.7c-0.3,0-0.5-0.1-0.7-0.2c-0.7-0.4-1-1.3-0.5-2l2-3.5c0.4-0.7,1.3-1,2-0.5c0.7,0.4,1,1.3,0.5,2
		l-2,3.5C33.1,44.4,32.5,44.7,32,44.7L32,44.7z"/>
	
		<linearGradient id="SVGID_128_" gradientUnits="userSpaceOnUse" x1="49.4098" y1="37.2917" x2="10.1161" y2="-2.002" gradientTransform="matrix(1 0 0 -1 0 48)">
		<stop  offset="0" style="stop-color:#31C2DD"/>
		<stop  offset="1" style="stop-color:#0B9BD7"/>
	</linearGradient>
	<path class="st131" d="M25.2,34.9h-2.3l0.6-0.9c0.4-0.7,0.2-1.6-0.5-2.1c-0.7-0.4-1.6-0.2-2.1,0.5l-2,3.2c-0.3,0.5-0.3,1,0,1.5
		c0.3,0.5,0.8,0.8,1.3,0.8h2.4l-2.7,4.9c-0.4,0.7-0.1,1.6,0.6,2C20.7,45,21,45,21.2,45c0.5,0,1-0.3,1.3-0.8l4-7.1
		c0.3-0.5,0.3-1,0-1.5S25.8,34.9,25.2,34.9z"/>
</g>
</svg>
