<?xml version="1.0" encoding="utf-8"?>
<!-- Generator: Adobe Illustrator 22.0.1, SVG Export Plug-In . SVG Version: 6.00 Build 0)  -->
<svg version="1.1" id="icons" xmlns="http://www.w3.org/2000/svg" xmlns:xlink="http://www.w3.org/1999/xlink" x="0px" y="0px"
	 viewBox="0 0 45.5 45.5" style="enable-background:new 0 0 45.5 45.5;" xml:space="preserve">
<style type="text/css">
	.st0{display:none;}
	.st1{display:inline;}
	.st2{fill:url(#SVGID_1_);}
	.st3{fill:url(#SVGID_2_);}
	.st4{fill:url(#SVGID_3_);}
	.st5{fill:url(#SVGID_4_);}
	.st6{fill:url(#SVGID_5_);}
	.st7{fill:url(#SVGID_6_);}
	.st8{fill:url(#SVGID_7_);}
	.st9{fill:url(#SVGID_8_);}
	.st10{fill:url(#SVGID_9_);}
	.st11{fill:url(#SVGID_10_);}
	.st12{fill:url(#SVGID_11_);}
	.st13{fill:url(#SVGID_12_);}
	.st14{fill:url(#SVGID_13_);}
	.st15{display:inline;fill:url(#SVGID_14_);}
	.st16{display:inline;fill:url(#SVGID_15_);}
	.st17{fill:url(#SVGID_16_);}
	.st18{fill:url(#SVGID_17_);}
	.st19{fill:url(#SVGID_18_);}
	.st20{fill:url(#SVGID_19_);}
</style>
<g id="clear" class="st0">
	<g class="st1">
		
			<linearGradient id="SVGID_1_" gradientUnits="userSpaceOnUse" x1="43.6072" y1="46.1082" x2="1.157" y2="3.658" gradientTransform="matrix(1 0 0 -1 0 48)">
			<stop  offset="0" style="stop-color:#31C2DD"/>
			<stop  offset="1" style="stop-color:#0B9BD7"/>
		</linearGradient>
		<path class="st2" d="M22.7,35c-6.8,0-12.2-5.5-12.2-12.2S16,10.5,22.7,10.5S35,16,35,22.8S29.5,35,22.7,35L22.7,35z M22.7,14.5
			c-4.5,0-8.2,3.7-8.2,8.2s3.7,8.2,8.2,8.2s8.2-3.7,8.2-8.2S27.3,14.5,22.7,14.5L22.7,14.5z"/>
	</g>
	<g class="st1">
		
			<linearGradient id="SVGID_2_" gradientUnits="userSpaceOnUse" x1="34.1066" y1="55.6077" x2="-8.342" y2="13.1591" gradientTransform="matrix(1 0 0 -1 0 48)">
			<stop  offset="0" style="stop-color:#31C2DD"/>
			<stop  offset="1" style="stop-color:#0B9BD7"/>
		</linearGradient>
		<path class="st3" d="M23,7c-0.8,0-1.5-0.7-1.5-1.5v-4C21.5,0.7,22.2,0,23,0c0.8,0,1.5,0.7,1.5,1.5v4C24.5,6.3,23.8,7,23,7L23,7z"
			/>
	</g>
	<g class="st1">
		
			<linearGradient id="SVGID_3_" gradientUnits="userSpaceOnUse" x1="30.5054" y1="59.2099" x2="-11.9446" y2="16.76" gradientTransform="matrix(1 0 0 -1 0 48)">
			<stop  offset="0" style="stop-color:#31C2DD"/>
			<stop  offset="1" style="stop-color:#0B9BD7"/>
		</linearGradient>
		<path class="st4" d="M14.3,9.2c-0.5,0-1-0.3-1.3-0.8L11,5c-0.4-0.7-0.2-1.6,0.5-2c0.7-0.4,1.6-0.2,2,0.5l2,3.5
			c0.4,0.7,0.2,1.6-0.5,2C14.9,9.1,14.6,9.2,14.3,9.2L14.3,9.2z"/>
	</g>
	<g class="st1">
		
			<linearGradient id="SVGID_4_" gradientUnits="userSpaceOnUse" x1="30.4133" y1="59.3021" x2="-12.0369" y2="16.8519" gradientTransform="matrix(1 0 0 -1 0 48)">
			<stop  offset="0" style="stop-color:#31C2DD"/>
			<stop  offset="1" style="stop-color:#0B9BD7"/>
		</linearGradient>
		<path class="st5" d="M7.9,15.4c-0.3,0-0.5-0.1-0.7-0.2l-3.5-2c-0.7-0.4-1-1.3-0.5-2s1.3-1,2-0.5l3.5,2c0.7,0.4,1,1.3,0.5,2
			C9,15.1,8.5,15.4,7.9,15.4L7.9,15.4z"/>
	</g>
	<g class="st1">
		
			<linearGradient id="SVGID_5_" gradientUnits="userSpaceOnUse" x1="33.8579" y1="55.8579" x2="-8.5921" y2="13.408" gradientTransform="matrix(1 0 0 -1 0 48)">
			<stop  offset="0" style="stop-color:#31C2DD"/>
			<stop  offset="1" style="stop-color:#0B9BD7"/>
		</linearGradient>
		<path class="st6" d="M5.5,24h-4C0.7,24,0,23.3,0,22.5S0.7,21,1.5,21h4C6.3,21,7,21.7,7,22.5S6.3,24,5.5,24L5.5,24z"/>
	</g>
	<g class="st1">
		
			<linearGradient id="SVGID_6_" gradientUnits="userSpaceOnUse" x1="39.9159" y1="49.8033" x2="-2.537" y2="7.3505" gradientTransform="matrix(1 0 0 -1 0 48)">
			<stop  offset="0" style="stop-color:#31C2DD"/>
			<stop  offset="1" style="stop-color:#0B9BD7"/>
		</linearGradient>
		<path class="st7" d="M4.2,34.7c-0.5,0-1-0.3-1.3-0.8c-0.4-0.7-0.2-1.6,0.5-2l3.5-2c0.7-0.4,1.6-0.2,2,0.5c0.4,0.7,0.2,1.6-0.5,2
			l-3.5,2C4.7,34.6,4.5,34.7,4.2,34.7L4.2,34.7z"/>
	</g>
	<g class="st1">
		
			<linearGradient id="SVGID_7_" gradientUnits="userSpaceOnUse" x1="46.9593" y1="42.7551" x2="4.5097" y2="0.3057" gradientTransform="matrix(1 0 0 -1 0 48)">
			<stop  offset="0" style="stop-color:#31C2DD"/>
			<stop  offset="1" style="stop-color:#0B9BD7"/>
		</linearGradient>
		<path class="st8" d="M11.9,42.5c-0.3,0-0.5-0.1-0.7-0.2c-0.7-0.4-1-1.3-0.5-2l2-3.5c0.4-0.7,1.3-1,2-0.5c0.7,0.4,1,1.3,0.5,2
			l-2,3.5C12.9,42.3,12.4,42.5,11.9,42.5L11.9,42.5z"/>
	</g>
	<g class="st1">
		
			<linearGradient id="SVGID_8_" gradientUnits="userSpaceOnUse" x1="53.1069" y1="36.6084" x2="10.6569" y2="-5.8415" gradientTransform="matrix(1 0 0 -1 0 48)">
			<stop  offset="0" style="stop-color:#31C2DD"/>
			<stop  offset="1" style="stop-color:#0B9BD7"/>
		</linearGradient>
		<path class="st9" d="M22.5,45.5c-0.8,0-1.5-0.7-1.5-1.5v-4c0-0.8,0.7-1.5,1.5-1.5S24,39.2,24,40v4C24,44.8,23.3,45.5,22.5,45.5
			L22.5,45.5z"/>
	</g>
	<g class="st1">
		
			<linearGradient id="SVGID_9_" gradientUnits="userSpaceOnUse" x1="56.7084" y1="33.0069" x2="14.2587" y2="-9.4427" gradientTransform="matrix(1 0 0 -1 0 48)">
			<stop  offset="0" style="stop-color:#31C2DD"/>
			<stop  offset="1" style="stop-color:#0B9BD7"/>
		</linearGradient>
		<path class="st10" d="M33.2,42.8c-0.5,0-1-0.3-1.3-0.8l-2-3.5c-0.4-0.7-0.2-1.6,0.5-2c0.7-0.4,1.6-0.2,2,0.5l2,3.5
			c0.4,0.7,0.2,1.6-0.5,2C33.7,42.7,33.4,42.8,33.2,42.8L33.2,42.8z"/>
	</g>
	<g class="st1">
		
			<linearGradient id="SVGID_10_" gradientUnits="userSpaceOnUse" x1="56.8004" y1="32.9169" x2="14.3484" y2="-9.5351" gradientTransform="matrix(1 0 0 -1 0 48)">
			<stop  offset="0" style="stop-color:#31C2DD"/>
			<stop  offset="1" style="stop-color:#0B9BD7"/>
		</linearGradient>
		<path class="st11" d="M41,35.1c-0.3,0-0.5-0.1-0.7-0.2l-3.5-2c-0.7-0.4-1-1.3-0.5-2c0.4-0.7,1.3-1,2-0.5l3.5,2
			c0.7,0.4,1,1.3,0.5,2C42,34.8,41.5,35.1,41,35.1L41,35.1z"/>
	</g>
	<g class="st1">
		
			<linearGradient id="SVGID_11_" gradientUnits="userSpaceOnUse" x1="53.3546" y1="36.3593" x2="10.9064" y2="-6.0889" gradientTransform="matrix(1 0 0 -1 0 48)">
			<stop  offset="0" style="stop-color:#31C2DD"/>
			<stop  offset="1" style="stop-color:#0B9BD7"/>
		</linearGradient>
		<path class="st12" d="M44,24.5h-4c-0.8,0-1.5-0.7-1.5-1.5s0.7-1.5,1.5-1.5h4c0.8,0,1.5,0.7,1.5,1.5S44.8,24.5,44,24.5L44,24.5z"/>
	</g>
	<g class="st1">
		
			<linearGradient id="SVGID_12_" gradientUnits="userSpaceOnUse" x1="47.2988" y1="42.4155" x2="4.8493" y2="-3.399606e-02" gradientTransform="matrix(1 0 0 -1 0 48)">
			<stop  offset="0" style="stop-color:#31C2DD"/>
			<stop  offset="1" style="stop-color:#0B9BD7"/>
		</linearGradient>
		<path class="st13" d="M37.8,15.8c-0.5,0-1-0.3-1.3-0.8c-0.4-0.7-0.2-1.6,0.5-2l3.5-2c0.7-0.4,1.6-0.2,2,0.5s0.2,1.6-0.5,2l-3.5,2
			C38.3,15.8,38.1,15.8,37.8,15.8L37.8,15.8z"/>
	</g>
	<g class="st1">
		
			<linearGradient id="SVGID_13_" gradientUnits="userSpaceOnUse" x1="40.2538" y1="49.4615" x2="-2.1964" y2="7.0114" gradientTransform="matrix(1 0 0 -1 0 48)">
			<stop  offset="0" style="stop-color:#31C2DD"/>
			<stop  offset="1" style="stop-color:#0B9BD7"/>
		</linearGradient>
		<path class="st14" d="M31.6,9.4c-0.3,0-0.5-0.1-0.7-0.2c-0.7-0.4-1-1.3-0.5-2l2-3.5c0.4-0.7,1.3-1,2-0.5s1,1.3,0.5,2l-2,3.5
			C32.6,9.2,32.1,9.4,31.6,9.4L31.6,9.4z"/>
	</g>
</g>
<g id="thunder" class="st0">
	
		<linearGradient id="SVGID_14_" gradientUnits="userSpaceOnUse" x1="40.1467" y1="45.7054" x2="0.8525" y2="6.4112" gradientTransform="matrix(1 0 0 -1 0 48)">
		<stop  offset="0" style="stop-color:#31C2DD"/>
		<stop  offset="1" style="stop-color:#0B9BD7"/>
	</linearGradient>
	<path class="st15" d="M34.1,8.4c-0.5,0-1.1,0-1.6,0.1C30.6,4,26.2,1,21.2,1c-5.9,0-10.9,4.3-12,9.9C4.1,11,0,15.2,0,20.4
		c0,4.2,2.8,7.9,6.7,9.1c0.8,0.3,1.7,0.4,2.6,0.4h25.3c1,0,1.9-0.2,2.8-0.5c4.5-1.4,7.5-5.5,7.5-10.2C44.9,13.2,40.1,8.4,34.1,8.4z
		 M36.2,25.5l-0.1,0c-0.5,0.2-1,0.3-1.5,0.3H9.3c-0.5,0-0.9-0.1-1.4-0.2C5.6,24.9,4,22.8,4,20.4c0-3,2.5-5.5,5.5-5.5
		c0.4,0,0.8,0,1.1,0.1l2.4,0.5l0-2.4C13.1,8.6,16.8,5,21.2,5c3.8,0,7.1,2.6,8,6.3l0.5,2.2l2.1-0.8c0.7-0.3,1.5-0.4,2.3-0.4
		c3.7,0,6.8,3,6.8,6.8C40.9,22.1,39,24.7,36.2,25.5z"/>
	
		<linearGradient id="SVGID_15_" gradientUnits="userSpaceOnUse" x1="49.1033" y1="36.7482" x2="9.8096" y2="-2.5455" gradientTransform="matrix(1 0 0 -1 0 48)">
		<stop  offset="0" style="stop-color:#31C2DD"/>
		<stop  offset="1" style="stop-color:#0B9BD7"/>
	</linearGradient>
	<path class="st16" d="M24.9,35.5h-2.3l0.6-0.9c0.4-0.7,0.2-1.6-0.5-2.1c-0.7-0.4-1.6-0.2-2.1,0.5l-2,3.2c-0.3,0.5-0.3,1,0,1.5
		c0.3,0.5,0.8,0.8,1.3,0.8h2.4l-2.7,4.9c-0.4,0.7-0.1,1.6,0.6,2c0.2,0.1,0.5,0.2,0.7,0.2c0.5,0,1-0.3,1.3-0.8l4-7.1
		c0.3-0.5,0.3-1,0-1.5S25.5,35.5,24.9,35.5z"/>
</g>
<g id="dizzle">
	<g>
		
			<linearGradient id="SVGID_16_" gradientUnits="userSpaceOnUse" x1="42.1249" y1="47.6832" x2="1.956" y2="7.5143" gradientTransform="matrix(1 0 0 -1 0 48)">
			<stop  offset="0" style="stop-color:#31C2DD"/>
			<stop  offset="1" style="stop-color:#0B9BD7"/>
		</linearGradient>
		<path class="st17" d="M34.6,29.9H9.3c-0.9,0-1.8-0.1-2.6-0.4C2.8,28.3,0,24.5,0,20.4c0-5.2,4.1-9.4,9.3-9.5
			c1.1-5.6,6.1-9.9,12-9.9c5,0,9.4,3,11.3,7.5c0.5-0.1,1.1-0.1,1.6-0.1c5.9,0,10.8,4.8,10.8,10.8c0,4.7-3,8.8-7.5,10.2
			C36.5,29.7,35.5,29.9,34.6,29.9L34.6,29.9z M9.5,14.9c-3,0-5.5,2.5-5.5,5.5c0,2.4,1.6,4.6,3.9,5.3c0.5,0.2,0.9,0.2,1.4,0.2h25.3
			c0.5,0,1-0.1,1.5-0.3l0.1,0c2.8-0.9,4.7-3.5,4.7-6.4c0-3.7-3-6.8-6.8-6.8c-0.8,0-1.5,0.1-2.3,0.4l-2.1,0.8l-0.5-2.2
			c-0.9-3.7-4.2-6.3-8-6.3c-4.4,0-8.1,3.6-8.2,8.1l0,2.4L10.6,15C10.3,14.9,9.9,14.9,9.5,14.9L9.5,14.9z"/>
	</g>
	<g>
		
			<linearGradient id="SVGID_17_" gradientUnits="userSpaceOnUse" x1="44.5156" y1="45.2935" x2="4.3464" y2="5.1243" gradientTransform="matrix(1 0 0 -1 0 48)">
			<stop  offset="0" style="stop-color:#31C2DD"/>
			<stop  offset="1" style="stop-color:#0B9BD7"/>
		</linearGradient>
		<path class="st18" d="M10.7,38.7c-0.3,0-0.5-0.1-0.7-0.2c-0.7-0.4-1-1.3-0.5-2l2-3.5c0.4-0.7,1.3-1,2-0.5c0.7,0.4,1,1.3,0.5,2
			L12,38C11.7,38.5,11.2,38.7,10.7,38.7L10.7,38.7z"/>
	</g>
	<g>
		
			<linearGradient id="SVGID_18_" gradientUnits="userSpaceOnUse" x1="49.2638" y1="40.5418" x2="9.0966" y2="0.3746" gradientTransform="matrix(1 0 0 -1 0 48)">
			<stop  offset="0" style="stop-color:#31C2DD"/>
			<stop  offset="1" style="stop-color:#0B9BD7"/>
		</linearGradient>
		<path class="st19" d="M20.2,38.7c-0.3,0-0.5-0.1-0.7-0.2c-0.7-0.4-1-1.3-0.5-2l2-3.5c0.4-0.7,1.3-1,2-0.5c0.7,0.4,1,1.3,0.5,2
			l-2,3.5C21.2,38.5,20.7,38.7,20.2,38.7L20.2,38.7z"/>
	</g>
	<g>
		
			<linearGradient id="SVGID_19_" gradientUnits="userSpaceOnUse" x1="54.0151" y1="35.793" x2="13.8461" y2="-4.376" gradientTransform="matrix(1 0 0 -1 0 48)">
			<stop  offset="0" style="stop-color:#31C2DD"/>
			<stop  offset="1" style="stop-color:#0B9BD7"/>
		</linearGradient>
		<path class="st20" d="M29.7,38.7c-0.3,0-0.5-0.1-0.7-0.2c-0.7-0.4-1-1.3-0.5-2l2-3.5c0.4-0.7,1.3-1,2-0.5c0.7,0.4,1,1.3,0.5,2
			L31,38C30.7,38.5,30.2,38.7,29.7,38.7L29.7,38.7z"/>
	</g>
</g>
</svg>
