<?xml version="1.0" encoding="utf-8"?>
<!-- Generator: Adobe Illustrator 22.0.1, SVG Export Plug-In . SVG Version: 6.00 Build 0)  -->
<svg version="1.1" id="Layer_1" xmlns="http://www.w3.org/2000/svg" xmlns:xlink="http://www.w3.org/1999/xlink" x="0px" y="0px"
	 viewBox="0 0 122.1 117.8" style="enable-background:new 0 0 122.1 117.8;" xml:space="preserve">
<style type="text/css">
	.st0{display:none;fill:none;}
	.st1{display:none;fill:#00CFFF;}
	.st2{display:none;}
	.st3{fill:#FFFFFF;}
	.st4{display:inline;fill-rule:evenodd;clip-rule:evenodd;fill:#FFFFFF;}
	.st5{display:inline;fill:#FFFFFF;}
</style>
<path id="bg" class="st0" d="M56.1,1.2h24v24h-24V1.2z"/>
<path id="vimeo_x5F_hover" class="st1" d="M78.1,8.6c-0.1,1.9-1.5,4.6-4.1,8c-2.7,3.6-5,5.3-6.9,5.3c-1.1,0-2.1-1.1-2.9-3.2
	c-0.6-2-1.1-3.9-1.6-5.9c-0.7-2.2-1.3-3.3-2-3.3c-0.1,0-0.7,0.3-1.6,0.9l-0.9-1.1c1-0.9,2-1.7,2.9-2.6c1.3-1.1,2.3-1.7,3-1.8
	c1.6-0.2,2.5,0.9,2.9,3.2c0.4,2.5,0.7,4,0.8,4.6c0.4,2,0.9,3,1.5,3c0.4,0,1.1-0.6,1.9-2c0.8-1.3,1.3-2.3,1.4-3
	C72.6,9.6,72.2,9,71.1,9c-0.5,0-1,0.1-1.5,0.3c1-3.2,2.9-4.8,5.6-4.7C77.2,4.7,78.2,6,78.1,8.6z"/>
<path id="vimeo" class="st2" d="M78.1,8.6c-0.1,1.9-1.5,4.6-4.1,8c-2.7,3.6-5,5.3-6.9,5.3c-1.1,0-2.1-1.1-2.9-3.2
	c-0.6-2-1.1-3.9-1.6-5.9c-0.7-2.2-1.3-3.3-2-3.3c-0.1,0-0.7,0.3-1.6,0.9l-0.9-1.1c1-0.9,2-1.7,2.9-2.6c1.3-1.1,2.3-1.7,3-1.8
	c1.6-0.2,2.5,0.9,2.9,3.2c0.4,2.5,0.7,4,0.8,4.6c0.4,2,0.9,3,1.5,3c0.4,0,1.1-0.6,1.9-2c0.8-1.3,1.3-2.3,1.4-3
	C72.6,9.6,72.2,9,71.1,9c-0.5,0-1,0.1-1.5,0.3c1-3.2,2.9-4.8,5.6-4.7C77.2,4.7,78.2,6,78.1,8.6z"/>
<path id="youtube_x5F_hover_1_" class="st1" d="M66.1,17.7v-9l6,4.5 M76.1,5.6c-0.6-0.2-4.3-0.4-8-0.4s-7.4,0.2-8,0.4
	c-1.6,0.5-2,4-2,7.6s0.4,7.1,2,7.6c0.6,0.2,4.3,0.4,8,0.4s7.4-0.2,8-0.4c1.6-0.5,2-4,2-7.6S77.7,6.1,76.1,5.6z"/>
<path id="youtube" class="st2" d="M66.1,17.7v-9l6,4.5 M76.1,5.6c-0.6-0.2-4.3-0.4-8-0.4s-7.4,0.2-8,0.4c-1.6,0.5-2,4-2,7.6
	s0.4,7.1,2,7.6c0.6,0.2,4.3,0.4,8,0.4s7.4-0.2,8-0.4c1.6-0.5,2-4,2-7.6S77.7,6.1,76.1,5.6z"/>
<path id="instagram_x5F_hover" class="st1" d="M63.9,3.2h8.4c3.2,0,5.8,2.6,5.8,5.8v8.4c0,3.2-2.6,5.8-5.8,5.8h-8.4
	c-3.2,0-5.8-2.6-5.8-5.8V9C58.1,5.8,60.7,3.2,63.9,3.2 M63.7,5.2c-2,0-3.6,1.6-3.6,3.6l0,0v8.8c0,2,1.6,3.6,3.6,3.6h8.8
	c2,0,3.6-1.6,3.6-3.6l0,0V8.8c0-2-1.6-3.6-3.6-3.6H63.7 M73.3,6.7c0.7,0,1.2,0.6,1.2,1.2S74,9.2,73.3,9.2c-0.7,0-1.2-0.6-1.2-1.2
	C72.1,7.4,72.7,6.7,73.3,6.7 M68.1,8.2c2.8,0,5,2.2,5,5s-2.2,5-5,5s-5-2.2-5-5S65.3,8.2,68.1,8.2 M68.1,10.2c-1.7,0-3,1.3-3,3
	s1.3,3,3,3s3-1.3,3-3S69.8,10.2,68.1,10.2z"/>
<path id="instagram" class="st2" d="M63.9,3.2h8.4c3.2,0,5.8,2.6,5.8,5.8v8.4c0,3.2-2.6,5.8-5.8,5.8h-8.4c-3.2,0-5.8-2.6-5.8-5.8V9
	C58.1,5.8,60.7,3.2,63.9,3.2 M63.7,5.2c-2,0-3.6,1.6-3.6,3.6l0,0v8.8c0,2,1.6,3.6,3.6,3.6h8.8c2,0,3.6-1.6,3.6-3.6l0,0V8.8
	c0-2-1.6-3.6-3.6-3.6H63.7 M73.3,6.7c0.7,0,1.2,0.6,1.2,1.2S74,9.2,73.3,9.2c-0.7,0-1.2-0.6-1.2-1.2C72.1,7.4,72.7,6.7,73.3,6.7
	 M68.1,8.2c2.8,0,5,2.2,5,5s-2.2,5-5,5s-5-2.2-5-5S65.3,8.2,68.1,8.2 M68.1,10.2c-1.7,0-3,1.3-3,3s1.3,3,3,3s3-1.3,3-3
	S69.8,10.2,68.1,10.2z"/>
<path id="twitter_x5F_hover" class="st1" d="M78.6,6.7C77.8,7,77,7.3,76.1,7.4C77,6.9,77.7,6,78,5c-0.9,0.5-1.9,0.8-2.8,1.1
	c-0.8-0.9-1.9-1.4-3.2-1.4c-2.4,0-4.3,1.9-4.3,4.3c0,0.3,0,0.7,0.1,1c-3.5-0.2-6.7-1.9-8.8-4.5c-0.4,0.6-0.6,1.4-0.6,2.1
	c0,1.5,0.8,2.8,1.9,3.6c-0.7,0-1.4-0.2-1.9-0.5l0,0c0,2.1,1.5,3.8,3.4,4.2c-0.4,0.1-0.7,0.2-1.1,0.2c-0.3,0-0.5,0-0.8-0.1
	c0.5,1.7,2.1,2.9,4,3c-1.5,1.2-3.3,1.8-5.3,1.8c-0.3,0-0.7,0-1-0.1c1.8,1.3,4.1,2,6.5,2c7.9,0,12.2-6.5,12.2-12.2c0-0.2,0-0.4,0-0.6
	C77.3,8.3,77.9,7.6,78.6,6.7z"/>
<path id="twitter" class="st2" d="M78.6,6.7C77.8,7,77,7.3,76.1,7.4C77,6.9,77.7,6,78,5c-0.9,0.5-1.9,0.8-2.8,1.1
	c-0.8-0.9-1.9-1.4-3.2-1.4c-2.4,0-4.3,1.9-4.3,4.3c0,0.3,0,0.7,0.1,1c-3.5-0.2-6.7-1.9-8.8-4.5c-0.4,0.6-0.6,1.4-0.6,2.1
	c0,1.5,0.8,2.8,1.9,3.6c-0.7,0-1.4-0.2-1.9-0.5l0,0c0,2.1,1.5,3.8,3.4,4.2c-0.4,0.1-0.7,0.2-1.1,0.2c-0.3,0-0.5,0-0.8-0.1
	c0.5,1.7,2.1,2.9,4,3c-1.5,1.2-3.3,1.8-5.3,1.8c-0.3,0-0.7,0-1-0.1c1.8,1.3,4.1,2,6.5,2c7.9,0,12.2-6.5,12.2-12.2c0-0.2,0-0.4,0-0.6
	C77.3,8.3,77.9,7.6,78.6,6.7z"/>
<path id="facebook_x5F_hover" class="st1" d="M75.1,4.2h-14c-1.1,0-2,0.9-2,2v14c0,1.1,0.9,2,2,2h7v-7h-2v-3h2V9.7
	c0-1.9,1.6-3.5,3.5-3.5h2.5v3h-2c-0.6,0-1,0.4-1,1v2h3v3h-3v7h4c1.1,0,2-0.9,2-2v-14C77.1,5.1,76.2,4.2,75.1,4.2z"/>
<path id="facebook" class="st2" d="M75.1,4.2h-14c-1.1,0-2,0.9-2,2v14c0,1.1,0.9,2,2,2h7v-7h-2v-3h2V9.7c0-1.9,1.6-3.5,3.5-3.5h2.5
	v3h-2c-0.6,0-1,0.4-1,1v2h3v3h-3v7h4c1.1,0,2-0.9,2-2v-14C77.1,5.1,76.2,4.2,75.1,4.2z"/>
<path id="github_1_" class="st1" d="M68.1,3.4c-5.5,0-10,4.5-10,10c0,4.4,2.9,8.2,6.8,9.5c0.5,0.1,0.7-0.2,0.7-0.5
	c0-0.2,0-0.9,0-1.7c-2.8,0.6-3.4-1.3-3.4-1.3c-0.4-1.2-1.1-1.5-1.1-1.5c-0.9-0.6,0.1-0.6,0.1-0.6c1,0.1,1.5,1,1.5,1
	c0.9,1.6,2.4,1.1,2.9,0.9c0.1-0.6,0.4-1.1,0.6-1.3c-2.2-0.2-4.6-1.1-4.6-4.9c0-1.1,0.4-2,1-2.7c0.1-0.4-0.3-1.4,0.3-2.7
	c0,0,0.8-0.3,2.8,1c0.8-0.2,1.6-0.3,2.5-0.3s1.7,0.1,2.5,0.3c1.9-1.3,2.8-1,2.8-1c0.5,1.3,0.2,2.4,0.1,2.6c0.6,0.7,1,1.6,1,2.7
	c0,3.8-2.3,4.7-4.6,4.9c0.4,0.3,0.7,0.9,0.7,1.9c0,1.3,0,2.4,0,2.7c0,0.3,0.2,0.6,0.7,0.5c4-1.3,6.8-5.1,6.8-9.5
	C78.1,7.9,73.6,3.4,68.1,3.4z"/>
<path id="github" class="st2" d="M68.1,3.4c-5.5,0-10,4.5-10,10c0,4.4,2.9,8.2,6.8,9.5c0.5,0.1,0.7-0.2,0.7-0.5c0-0.2,0-0.9,0-1.7
	c-2.8,0.6-3.4-1.3-3.4-1.3c-0.4-1.2-1.1-1.5-1.1-1.5c-0.9-0.6,0.1-0.6,0.1-0.6c1,0.1,1.5,1,1.5,1c0.9,1.6,2.4,1.1,2.9,0.9
	c0.1-0.6,0.4-1.1,0.6-1.3c-2.2-0.2-4.6-1.1-4.6-4.9c0-1.1,0.4-2,1-2.7c0.1-0.4-0.3-1.4,0.3-2.7c0,0,0.8-0.3,2.8,1
	c0.8-0.2,1.6-0.3,2.5-0.3s1.7,0.1,2.5,0.3c1.9-1.3,2.8-1,2.8-1c0.5,1.3,0.2,2.4,0.1,2.6c0.6,0.7,1,1.6,1,2.7c0,3.8-2.3,4.7-4.6,4.9
	c0.4,0.3,0.7,0.9,0.7,1.9c0,1.3,0,2.4,0,2.7c0,0.3,0.2,0.6,0.7,0.5c4-1.3,6.8-5.1,6.8-9.5C78.1,7.9,73.6,3.4,68.1,3.4z"/>
<path id="mail_x5F_hover" class="st1" d="M76.1,5.2h-16c-1.1,0-2,0.9-2,2v12c0,1.1,0.9,2,2,2h16c1.1,0,2-0.9,2-2v-12
	C78.1,6.1,77.2,5.2,76.1,5.2z M76.1,9.2l-8,5l-8-5v-2l8,5l8-5V9.2z"/>
<path id="mail" class="st2" d="M76.1,5.2h-16c-1.1,0-2,0.9-2,2v12c0,1.1,0.9,2,2,2h16c1.1,0,2-0.9,2-2v-12
	C78.1,6.1,77.2,5.2,76.1,5.2z M76.1,9.2l-8,5l-8-5v-2l8,5l8-5V9.2z"/>
<path id="linkedin" class="st3" d="M19.9,25c0-2.5,0.8-4.9,2.9-6.6c1.6-1.6,4.1-2.5,7-2.5s5.3,0.8,7,2.5s2.9,4.1,2.9,7
	c0,2.5-0.8,4.5-2.9,6.2c-1.6,1.6-4.1,2.5-7.4,2.5l0,0c-2.9,0-5.3-0.8-7-2.5S19.9,27.4,19.9,25z M21.1,94V41.4h17.7V94H21.1z
	 M48.2,94h17.7V64.4c0-1.6,0.4-3.3,0.8-4.1c0.8-1.6,2.1-3.3,3.3-4.5c1.6-1.2,3.3-2.1,5.7-2.1c5.7,0,9,4.1,9,11.9V94H102V63.6
	c0-7.8-1.6-13.6-5.3-17.7c-3.7-4.1-8.6-6.2-14.8-6.2c-7,0-11.9,2.9-16,8.6l0,0l0,0l0,0v-7H48.2c0,1.6,0,7,0,15.6
	C48.7,65.6,48.2,77.9,48.2,94z"/>
<path id="linkedin_1_" class="st2" d="M58.1,5.9c0-0.6,0.2-1.2,0.7-1.6c0.4-0.4,1-0.6,1.7-0.6c0.7,0,1.3,0.2,1.7,0.6
	c0.4,0.4,0.7,1,0.7,1.7c0,0.6-0.2,1.1-0.7,1.5c-0.4,0.4-1,0.6-1.8,0.6l0,0c-0.7,0-1.3-0.2-1.7-0.6C58.3,7.1,58.1,6.5,58.1,5.9z
	 M58.4,22.7V9.9h4.3v12.8H58.4z M65,22.7h4.3v-7.2c0-0.4,0.1-0.8,0.2-1c0.2-0.4,0.5-0.8,0.8-1.1c0.4-0.3,0.8-0.5,1.4-0.5
	c1.4,0,2.2,1,2.2,2.9v6.9h4.2v-7.4c0-1.9-0.4-3.3-1.3-4.3c-0.9-1-2.1-1.5-3.6-1.5c-1.7,0-2.9,0.7-3.9,2.1l0,0l0,0l0,0V9.9H65
	c0,0.4,0,1.7,0,3.8C65.1,15.8,65,18.8,65,22.7z"/>
<g class="st2">
	<path class="st4" d="M60.7-0.3c-33.3,0-60.4,27-60.4,60.4c0,26.7,17.3,49.3,41.3,57.3c3,0.6,4.1-1.3,4.1-2.9
		c0-1.4-0.1-6.2-0.1-11.2c-16.8,3.7-20.3-7.1-20.3-7.1c-2.7-7-6.7-8.8-6.7-8.8c-5.5-3.7,0.4-3.7,0.4-3.7c6.1,0.4,9.3,6.2,9.3,6.2
		c5.4,9.2,14.1,6.6,17.6,5c0.5-3.9,2.1-6.6,3.8-8.1C36.3,85.2,22.2,80,22.2,56.9c0-6.6,2.4-12,6.2-16.2c-0.6-1.5-2.7-7.7,0.6-16
		c0,0,5.1-1.6,16.6,6.2c4.8-1.3,10-2,15.1-2c5.1,0,10.3,0.7,15.1,2c11.5-7.8,16.6-6.2,16.6-6.2c3.3,8.3,1.2,14.5,0.6,16
		c3.9,4.2,6.2,9.6,6.2,16.2c0,23.2-14.1,28.3-27.6,29.8c2.2,1.9,4.1,5.5,4.1,11.2c0,8.1-0.1,14.6-0.1,16.6c0,1.6,1.1,3.5,4.1,2.9
		c24-8,41.3-30.6,41.3-57.3C121.1,26.7,94.1-0.3,60.7-0.3z"/>
	<path class="st5" d="M23.2,86.4c-0.1,0.3-0.6,0.4-1,0.2c-0.4-0.2-0.7-0.6-0.5-0.9c0.1-0.3,0.6-0.4,1-0.2
		C23.1,85.7,23.4,86.1,23.2,86.4L23.2,86.4z M22.5,85.8"/>
	<path class="st5" d="M25.7,89.1c-0.3,0.3-0.9,0.1-1.2-0.3c-0.4-0.4-0.5-1-0.2-1.3c0.3-0.3,0.8-0.1,1.2,0.3
		C25.9,88.3,26,88.8,25.7,89.1L25.7,89.1z M25.1,88.5"/>
	<path class="st5" d="M28,92.6c-0.4,0.3-1,0-1.3-0.5c-0.4-0.5-0.4-1.2,0-1.4c0.4-0.3,1,0,1.3,0.5C28.4,91.7,28.4,92.3,28,92.6
		L28,92.6z M28,92.6"/>
	<path class="st5" d="M31.3,95.9c-0.3,0.4-1,0.3-1.6-0.2c-0.5-0.5-0.7-1.2-0.3-1.5c0.3-0.4,1-0.3,1.6,0.2
		C31.5,94.9,31.6,95.6,31.3,95.9L31.3,95.9z M31.3,95.9"/>
	<path class="st5" d="M35.8,97.9c-0.1,0.5-0.8,0.7-1.5,0.5c-0.7-0.2-1.1-0.8-1-1.2c0.1-0.5,0.8-0.7,1.5-0.5
		C35.5,96.9,35.9,97.4,35.8,97.9L35.8,97.9z M35.8,97.9"/>
	<path class="st5" d="M40.7,98.2c0,0.5-0.6,0.9-1.3,0.9c-0.7,0-1.3-0.4-1.3-0.9c0-0.5,0.6-0.9,1.3-0.9
		C40.1,97.4,40.7,97.8,40.7,98.2L40.7,98.2z M40.7,98.2"/>
	<path class="st5" d="M45.3,97.5c0.1,0.5-0.4,1-1.1,1.1c-0.7,0.1-1.3-0.2-1.4-0.7c-0.1-0.5,0.4-1,1.1-1.1
		C44.6,96.7,45.2,97,45.3,97.5L45.3,97.5z M45.3,97.5"/>
</g>
</svg>
